<svg width="305" height="73" viewBox="0 0 305 73" fill="none" xmlns="http://www.w3.org/2000/svg">
<path d="M0 9H250C255.523 9 260 13.4772 260 19V55C260 60.5228 255.523 65 250 65H0V9Z" fill="white"/>
<path d="M37.364 32L36.678 30.026H32.506L31.82 32H30.07L33.626 22.2H35.558L39.1 32H37.364ZM33.038 28.514H36.146L34.592 24.09L33.038 28.514ZM46.2438 32H44.4378L41.5678 28.766V32H40.0558V25H41.5678V28.094L44.2838 25H46.1318L43.0518 28.43L46.2438 32ZM53.2809 30.572H54.4289V33.876H52.9449V32H47.2609V25H48.7729V30.572H51.7689V25H53.2809V30.572ZM60.7234 25H61.8854V32H60.4014V27.548L56.8174 32H55.6554V25H57.1394V29.438L60.7234 25ZM69.0578 25V32H67.5738V29.648H66.7338L64.9558 32H63.1778L65.0678 29.508C64.5825 29.3493 64.1905 29.0693 63.8918 28.668C63.6025 28.2667 63.4578 27.8187 63.4578 27.324C63.4578 26.68 63.6865 26.134 64.1438 25.686C64.6105 25.2287 65.2078 25 65.9358 25H69.0578ZM66.0198 28.346H67.5738V26.372H66.0198C65.7118 26.372 65.4551 26.4607 65.2498 26.638C65.0445 26.8153 64.9418 27.058 64.9418 27.366C64.9418 27.6647 65.0445 27.9027 65.2498 28.08C65.4551 28.2573 65.7118 28.346 66.0198 28.346ZM71.1255 28.92L70.8175 25V22.2H72.6375V25L72.3155 28.92H71.1255ZM72.4695 31.86C72.2642 32.0653 72.0169 32.168 71.7275 32.168C71.4382 32.168 71.1909 32.0653 70.9855 31.86C70.7802 31.6547 70.6775 31.4073 70.6775 31.118C70.6775 30.8287 70.7755 30.5813 70.9715 30.376C71.1769 30.1707 71.4289 30.068 71.7275 30.068C72.0169 30.068 72.2642 30.1707 72.4695 30.376C72.6749 30.5813 72.7775 30.8287 72.7775 31.118C72.7775 31.4073 72.6749 31.6547 72.4695 31.86ZM85.1239 22.2V32H84.1439V23.124H79.1039V32H78.1239V22.2H85.1239ZM90.9781 24.832C91.9768 24.832 92.8261 25.1867 93.5261 25.896C94.2354 26.6053 94.5901 27.4733 94.5901 28.5C94.5901 29.5267 94.2354 30.3947 93.5261 31.104C92.8261 31.8133 91.9768 32.168 90.9781 32.168C89.7368 32.168 88.7941 31.6547 88.1501 30.628V34.8H87.2261V25H88.1501V26.372C88.7941 25.3453 89.7368 24.832 90.9781 24.832ZM88.9481 30.474C89.4801 31.006 90.1334 31.272 90.9081 31.272C91.6828 31.272 92.3361 31.006 92.8681 30.474C93.4001 29.9327 93.6661 29.2747 93.6661 28.5C93.6661 27.7253 93.4001 27.072 92.8681 26.54C92.3361 25.9987 91.6828 25.728 90.9081 25.728C90.1334 25.728 89.4801 25.9987 88.9481 26.54C88.4161 27.072 88.1501 27.7253 88.1501 28.5C88.1501 29.2747 88.4161 29.9327 88.9481 30.474ZM101.222 25H102.006V32H101.082V26.61L96.9105 32H96.1265V25H97.0505V30.39L101.222 25ZM113.34 25V32H112.416V25.896H108.384V32H107.46V25H113.34ZM121.16 31.118C120.451 31.818 119.583 32.168 118.556 32.168C117.53 32.168 116.657 31.818 115.938 31.118C115.229 30.4087 114.874 29.536 114.874 28.5C114.874 27.464 115.229 26.596 115.938 25.896C116.657 25.1867 117.53 24.832 118.556 24.832C119.583 24.832 120.451 25.1867 121.16 25.896C121.879 26.596 122.238 27.464 122.238 28.5C122.238 29.536 121.879 30.4087 121.16 31.118ZM116.596 30.474C117.128 31.006 117.782 31.272 118.556 31.272C119.331 31.272 119.984 31.006 120.516 30.474C121.048 29.9327 121.314 29.2747 121.314 28.5C121.314 27.7253 121.048 27.072 120.516 26.54C119.984 25.9987 119.331 25.728 118.556 25.728C117.782 25.728 117.128 25.9987 116.596 26.54C116.064 27.072 115.798 27.7253 115.798 28.5C115.798 29.2747 116.064 29.9327 116.596 30.474ZM128.237 28.402C129.002 28.682 129.385 29.228 129.385 30.04C129.385 30.6093 129.193 31.0807 128.811 31.454C128.437 31.818 127.896 32 127.187 32H123.785V25H126.907C127.588 25 128.115 25.1773 128.489 25.532C128.862 25.8773 129.049 26.3253 129.049 26.876C129.049 27.576 128.778 28.0847 128.237 28.402ZM126.907 25.896H124.709V28.024H126.907C127.719 28.024 128.125 27.66 128.125 26.932C128.125 26.6053 128.017 26.3533 127.803 26.176C127.597 25.9893 127.299 25.896 126.907 25.896ZM127.187 31.104C127.597 31.104 127.91 31.006 128.125 30.81C128.349 30.614 128.461 30.3387 128.461 29.984C128.461 29.6573 128.349 29.4007 128.125 29.214C127.91 29.018 127.597 28.92 127.187 28.92H124.709V31.104H127.187ZM135.551 25V25.896H133.073V32H132.149V25.896H129.671V25H135.551ZM142.27 31.118C141.56 31.818 140.692 32.168 139.666 32.168C138.639 32.168 137.766 31.818 137.048 31.118C136.338 30.4087 135.984 29.536 135.984 28.5C135.984 27.464 136.338 26.596 137.048 25.896C137.766 25.1867 138.639 24.832 139.666 24.832C140.692 24.832 141.56 25.1867 142.27 25.896C142.988 26.596 143.348 27.464 143.348 28.5C143.348 29.536 142.988 30.4087 142.27 31.118ZM137.706 30.474C138.238 31.006 138.891 31.272 139.666 31.272C140.44 31.272 141.094 31.006 141.626 30.474C142.158 29.9327 142.424 29.2747 142.424 28.5C142.424 27.7253 142.158 27.072 141.626 26.54C141.094 25.9987 140.44 25.728 139.666 25.728C138.891 25.728 138.238 25.9987 137.706 26.54C137.174 27.072 136.908 27.7253 136.908 28.5C136.908 29.2747 137.174 29.9327 137.706 30.474ZM148.646 24.832C149.645 24.832 150.494 25.1867 151.194 25.896C151.903 26.6053 152.258 27.4733 152.258 28.5C152.258 29.5267 151.903 30.3947 151.194 31.104C150.494 31.8133 149.645 32.168 148.646 32.168C147.405 32.168 146.462 31.6547 145.818 30.628V34.8H144.894V25H145.818V26.372C146.462 25.3453 147.405 24.832 148.646 24.832ZM146.616 30.474C147.148 31.006 147.801 31.272 148.576 31.272C149.351 31.272 150.004 31.006 150.536 30.474C151.068 29.9327 151.334 29.2747 151.334 28.5C151.334 27.7253 151.068 27.072 150.536 26.54C150.004 25.9987 149.351 25.728 148.576 25.728C147.801 25.728 147.148 25.9987 146.616 26.54C146.084 27.072 145.818 27.7253 145.818 28.5C145.818 29.2747 146.084 29.9327 146.616 30.474ZM158.75 25H159.674V32H158.75V28.948H154.718V32H153.794V25H154.718V28.052H158.75V25ZM167.494 31.118C166.785 31.818 165.917 32.168 164.89 32.168C163.864 32.168 162.991 31.818 162.272 31.118C161.563 30.4087 161.208 29.536 161.208 28.5C161.208 27.464 161.563 26.596 162.272 25.896C162.991 25.1867 163.864 24.832 164.89 24.832C165.917 24.832 166.785 25.1867 167.494 25.896C168.213 26.596 168.572 27.464 168.572 28.5C168.572 29.536 168.213 30.4087 167.494 31.118ZM162.93 30.474C163.462 31.006 164.116 31.272 164.89 31.272C165.665 31.272 166.318 31.006 166.85 30.474C167.382 29.9327 167.648 29.2747 167.648 28.5C167.648 27.7253 167.382 27.072 166.85 26.54C166.318 25.9987 165.665 25.728 164.89 25.728C164.116 25.728 163.462 25.9987 162.93 26.54C162.398 27.072 162.132 27.7253 162.132 28.5C162.132 29.2747 162.398 29.9327 162.93 30.474ZM176.979 25V32H176.055V26.414L173.605 30.39H173.493L171.043 26.414V32H170.119V25H171.183L173.549 28.836L175.915 25H176.979ZM186.049 28.402C186.861 28.71 187.267 29.27 187.267 30.082C187.267 30.6607 187.038 31.1553 186.581 31.566C186.133 31.9673 185.489 32.168 184.649 32.168C183.24 32.168 182.316 31.608 181.877 30.488L182.661 30.026C182.95 30.8567 183.613 31.272 184.649 31.272C185.19 31.272 185.606 31.1553 185.895 30.922C186.194 30.6887 186.343 30.39 186.343 30.026C186.343 29.6993 186.222 29.4333 185.979 29.228C185.736 29.0227 185.41 28.92 184.999 28.92H183.977V28.024H184.719C185.12 28.024 185.433 27.926 185.657 27.73C185.89 27.5247 186.007 27.2447 186.007 26.89C186.007 26.554 185.872 26.2787 185.601 26.064C185.33 25.84 184.966 25.728 184.509 25.728C183.632 25.728 183.048 26.078 182.759 26.778L181.989 26.33C182.456 25.3313 183.296 24.832 184.509 24.832C185.246 24.832 185.834 25.028 186.273 25.42C186.712 25.8027 186.931 26.274 186.931 26.834C186.931 27.5527 186.637 28.0753 186.049 28.402ZM194.691 25H195.615V32H194.691V30.628C194.047 31.6547 193.105 32.168 191.863 32.168C190.865 32.168 190.011 31.8133 189.301 31.104C188.601 30.3947 188.251 29.5267 188.251 28.5C188.251 27.4733 188.601 26.6053 189.301 25.896C190.011 25.1867 190.865 24.832 191.863 24.832C193.105 24.832 194.047 25.3453 194.691 26.372V25ZM189.973 30.474C190.505 31.006 191.159 31.272 191.933 31.272C192.708 31.272 193.361 31.006 193.893 30.474C194.425 29.9327 194.691 29.2747 194.691 28.5C194.691 27.7253 194.425 27.072 193.893 26.54C193.361 25.9987 192.708 25.728 191.933 25.728C191.159 25.728 190.505 25.9987 189.973 26.54C189.441 27.072 189.175 27.7253 189.175 28.5C189.175 29.2747 189.441 29.9327 189.973 30.474ZM203.228 32H201.996L198.496 28.626V32H197.572V25H198.496V28.094L201.828 25H203.088L199.476 28.36L203.228 32ZM209.812 25H210.737V32H209.812V30.628C209.169 31.6547 208.226 32.168 206.985 32.168C205.986 32.168 205.132 31.8133 204.423 31.104C203.723 30.3947 203.373 29.5267 203.373 28.5C203.373 27.4733 203.723 26.6053 204.423 25.896C205.132 25.1867 205.986 24.832 206.985 24.832C208.226 24.832 209.169 25.3453 209.812 26.372V25ZM205.095 30.474C205.627 31.006 206.28 31.272 207.055 31.272C207.829 31.272 208.483 31.006 209.015 30.474C209.547 29.9327 209.812 29.2747 209.812 28.5C209.812 27.7253 209.547 27.072 209.015 26.54C208.483 25.9987 207.829 25.728 207.055 25.728C206.28 25.728 205.627 25.9987 205.095 26.54C204.563 27.072 204.297 27.7253 204.297 28.5C204.297 29.2747 204.563 29.9327 205.095 30.474ZM216.305 28.402C217.117 28.71 217.523 29.27 217.523 30.082C217.523 30.6607 217.294 31.1553 216.837 31.566C216.389 31.9673 215.745 32.168 214.905 32.168C213.496 32.168 212.572 31.608 212.133 30.488L212.917 30.026C213.206 30.8567 213.869 31.272 214.905 31.272C215.446 31.272 215.862 31.1553 216.151 30.922C216.45 30.6887 216.599 30.39 216.599 30.026C216.599 29.6993 216.478 29.4333 216.235 29.228C215.992 29.0227 215.666 28.92 215.255 28.92H214.233V28.024H214.975C215.376 28.024 215.689 27.926 215.913 27.73C216.146 27.5247 216.263 27.2447 216.263 26.89C216.263 26.554 216.128 26.2787 215.857 26.064C215.586 25.84 215.222 25.728 214.765 25.728C213.888 25.728 213.304 26.078 213.015 26.778L212.245 26.33C212.712 25.3313 213.552 24.832 214.765 24.832C215.502 24.832 216.09 25.028 216.529 25.42C216.968 25.8027 217.187 26.274 217.187 26.834C217.187 27.5527 216.893 28.0753 216.305 28.402ZM222.161 24.832C223.197 24.832 224.033 25.2007 224.667 25.938C225.311 26.666 225.633 27.5293 225.633 28.528C225.633 28.6307 225.624 28.7753 225.605 28.962H219.459C219.553 29.6713 219.851 30.236 220.355 30.656C220.869 31.0667 221.499 31.272 222.245 31.272C222.777 31.272 223.235 31.1647 223.617 30.95C224.009 30.726 224.303 30.4367 224.499 30.082L225.311 30.558C225.003 31.0527 224.583 31.4447 224.051 31.734C223.519 32.0233 222.913 32.168 222.231 32.168C221.13 32.168 220.234 31.8227 219.543 31.132C218.853 30.4413 218.507 29.564 218.507 28.5C218.507 27.4547 218.848 26.582 219.529 25.882C220.211 25.182 221.088 24.832 222.161 24.832ZM222.161 25.728C221.433 25.728 220.822 25.9473 220.327 26.386C219.842 26.8153 219.553 27.3753 219.459 28.066H224.681C224.588 27.3287 224.303 26.7547 223.827 26.344C223.351 25.9333 222.796 25.728 222.161 25.728ZM34.186 52.182C33.1313 52.182 32.2493 51.8273 31.54 51.118C30.84 50.4087 30.49 49.536 30.49 48.5C30.49 47.4547 30.84 46.582 31.54 45.882C32.2493 45.1727 33.1313 44.818 34.186 44.818C34.8673 44.818 35.488 44.9813 36.048 45.308C36.608 45.6347 37.028 46.0733 37.308 46.624L36.006 47.38C35.8473 47.044 35.6047 46.7827 35.278 46.596C34.9607 46.4 34.592 46.302 34.172 46.302C33.556 46.302 33.038 46.512 32.618 46.932C32.2073 47.352 32.002 47.8747 32.002 48.5C32.002 49.1253 32.2073 49.648 32.618 50.068C33.038 50.488 33.556 50.698 34.172 50.698C34.5827 50.698 34.9513 50.6 35.278 50.404C35.614 50.208 35.866 49.9467 36.034 49.62L37.336 50.362C37.0373 50.922 36.608 51.3653 36.048 51.692C35.488 52.0187 34.8673 52.182 34.186 52.182ZM44.6579 52H42.8519L39.9819 48.766V52H38.4699V45H39.9819V48.094L42.6979 45H44.5459L41.4659 48.43L44.6579 52ZM50.743 45H51.905V52H50.421V47.548L46.837 52H45.675V45H47.159V49.438L50.743 45ZM59.8193 50.572H60.7573V53.876H59.2733V52H54.4713V53.876H52.9873V50.572H53.8413C54.2707 49.9653 54.4853 49.1207 54.4853 48.038V45H59.8193V50.572ZM55.5073 50.572H58.3353V46.386H55.9693V48.038C55.9693 49.0367 55.8153 49.8813 55.5073 50.572ZM68.1735 52H66.3675L63.4975 48.766V52H61.9855V45H63.4975V48.094L66.2135 45H68.0615L64.9815 48.43L68.1735 52ZM74.174 45H75.686V52H74.174V50.992C73.6047 51.7853 72.788 52.182 71.724 52.182C70.7627 52.182 69.9414 51.8273 69.26 51.118C68.5787 50.3993 68.238 49.5267 68.238 48.5C68.238 47.464 68.5787 46.5913 69.26 45.882C69.9414 45.1727 70.7627 44.818 71.724 44.818C72.788 44.818 73.6047 45.21 74.174 45.994V45ZM70.38 50.11C70.8 50.53 71.3274 50.74 71.962 50.74C72.5967 50.74 73.124 50.53 73.544 50.11C73.964 49.6807 74.174 49.144 74.174 48.5C74.174 47.856 73.964 47.324 73.544 46.904C73.124 46.4747 72.5967 46.26 71.962 46.26C71.3274 46.26 70.8 46.4747 70.38 46.904C69.96 47.324 69.75 47.856 69.75 48.5C69.75 49.144 69.96 49.6807 70.38 50.11ZM82.8244 42.2H84.2244V52H82.6144V43.922L80.6404 44.482L80.2484 43.11L82.8244 42.2ZM89.1254 45.896C90.0587 45.896 90.8474 46.176 91.4914 46.736C92.1354 47.2867 92.4574 48.052 92.4574 49.032C92.4574 50.012 92.1261 50.782 91.4634 51.342C90.8007 51.902 89.9887 52.182 89.0274 52.182C88.2527 52.182 87.5667 52.0047 86.9694 51.65C86.3721 51.286 85.9474 50.7633 85.6954 50.082L87.0814 49.284C87.3427 50.1707 87.9914 50.614 89.0274 50.614C89.5781 50.614 90.0167 50.474 90.3434 50.194C90.6794 49.9047 90.8474 49.5173 90.8474 49.032C90.8474 48.5467 90.6841 48.164 90.3574 47.884C90.0307 47.604 89.5967 47.464 89.0554 47.464H86.1994L86.5774 42.2H92.0374V43.712H88.0614L87.8934 45.896H89.1254ZM97.2509 45.854C96.8215 46.2833 96.2802 46.498 95.6269 46.498C94.9735 46.498 94.4275 46.2833 93.9889 45.854C93.5502 45.4153 93.3309 44.8833 93.3309 44.258C93.3309 43.6327 93.5502 43.1053 93.9889 42.676C94.4275 42.2373 94.9735 42.018 95.6269 42.018C96.2802 42.018 96.8215 42.2327 97.2509 42.662C97.6895 43.0913 97.9089 43.6233 97.9089 44.258C97.9089 44.8833 97.6895 45.4153 97.2509 45.854ZM95.6129 45.266C95.9115 45.266 96.1542 45.168 96.3409 44.972C96.5275 44.776 96.6209 44.538 96.6209 44.258C96.6209 43.9687 96.5275 43.726 96.3409 43.53C96.1542 43.334 95.9115 43.236 95.6129 43.236C95.3235 43.236 95.0855 43.334 94.8989 43.53C94.7122 43.726 94.6189 43.9687 94.6189 44.258C94.6189 44.538 94.7122 44.776 94.8989 44.972C95.0855 45.168 95.3235 45.266 95.6129 45.266ZM94.1569 50.558L100.611 43.376L101.367 43.81L94.9129 51.006L94.1569 50.558ZM100.107 52.168C99.4535 52.168 98.9075 51.9533 98.4689 51.524C98.0302 51.0853 97.8109 50.5533 97.8109 49.928C97.8109 49.3027 98.0302 48.7753 98.4689 48.346C98.9075 47.9073 99.4535 47.688 100.107 47.688C100.751 47.688 101.292 47.9073 101.731 48.346C102.17 48.7753 102.389 49.3027 102.389 49.928C102.389 50.5533 102.17 51.0853 101.731 51.524C101.292 51.9533 100.751 52.168 100.107 52.168ZM100.093 50.936C100.392 50.936 100.634 50.838 100.821 50.642C101.008 50.446 101.101 50.208 101.101 49.928C101.101 49.6387 101.008 49.396 100.821 49.2C100.634 49.004 100.392 48.906 100.093 48.906C99.8035 48.906 99.5655 49.004 99.3789 49.2C99.1922 49.396 99.0989 49.6387 99.0989 49.928C99.0989 50.208 99.1922 50.446 99.3789 50.642C99.5655 50.838 99.8035 50.936 100.093 50.936ZM112.526 45H113.45V52H112.526V48.948H108.494V52H107.57V45H108.494V48.052H112.526V45ZM121.424 45H122.348V52H121.424V50.628C120.78 51.6547 119.837 52.168 118.596 52.168C117.597 52.168 116.743 51.8133 116.034 51.104C115.334 50.3947 114.984 49.5267 114.984 48.5C114.984 47.4733 115.334 46.6053 116.034 45.896C116.743 45.1867 117.597 44.832 118.596 44.832C119.837 44.832 120.78 45.3453 121.424 46.372V45ZM116.706 50.474C117.238 51.006 117.891 51.272 118.666 51.272C119.44 51.272 120.094 51.006 120.626 50.474C121.158 49.9327 121.424 49.2747 121.424 48.5C121.424 47.7253 121.158 47.072 120.626 46.54C120.094 45.9987 119.44 45.728 118.666 45.728C117.891 45.728 117.238 45.9987 116.706 46.54C116.174 47.072 115.908 47.7253 115.908 48.5C115.908 49.2747 116.174 49.9327 116.706 50.474ZM133.684 51.104H134.664V53.876H133.74V52H128.028V53.876H127.104V51.104H127.958C128.434 50.4787 128.672 49.5967 128.672 48.458V45H133.684V51.104ZM129.078 51.104H132.76V45.896H129.596V48.458C129.596 49.5313 129.424 50.4133 129.078 51.104ZM139.814 44.832C140.813 44.832 141.662 45.1867 142.362 45.896C143.071 46.6053 143.426 47.4733 143.426 48.5C143.426 49.5267 143.071 50.3947 142.362 51.104C141.662 51.8133 140.813 52.168 139.814 52.168C138.573 52.168 137.63 51.6547 136.986 50.628V54.8H136.062V45H136.986V46.372C137.63 45.3453 138.573 44.832 139.814 44.832ZM137.784 50.474C138.316 51.006 138.969 51.272 139.744 51.272C140.519 51.272 141.172 51.006 141.704 50.474C142.236 49.9327 142.502 49.2747 142.502 48.5C142.502 47.7253 142.236 47.072 141.704 46.54C141.172 45.9987 140.519 45.728 139.744 45.728C138.969 45.728 138.316 45.9987 137.784 46.54C137.252 47.072 136.986 47.7253 136.986 48.5C136.986 49.2747 137.252 49.9327 137.784 50.474ZM149.729 45H150.709L147.713 52.644C147.442 53.3347 147.055 53.876 146.551 54.268C146.056 54.6693 145.501 54.8467 144.885 54.8V53.932C145.725 54.0253 146.364 53.54 146.803 52.476L146.985 52.042L143.849 45H144.829L147.461 50.866L149.729 45ZM156.306 45V45.896H152.75V52H151.826V45H156.306ZM163.024 51.118C162.314 51.818 161.446 52.168 160.42 52.168C159.393 52.168 158.52 51.818 157.802 51.118C157.092 50.4087 156.738 49.536 156.738 48.5C156.738 47.464 157.092 46.596 157.802 45.896C158.52 45.1867 159.393 44.832 160.42 44.832C161.446 44.832 162.314 45.1867 163.024 45.896C163.742 46.596 164.102 47.464 164.102 48.5C164.102 49.536 163.742 50.4087 163.024 51.118ZM158.46 50.474C158.992 51.006 159.645 51.272 160.42 51.272C161.194 51.272 161.848 51.006 162.38 50.474C162.912 49.9327 163.178 49.2747 163.178 48.5C163.178 47.7253 162.912 47.072 162.38 46.54C161.848 45.9987 161.194 45.728 160.42 45.728C159.645 45.728 158.992 45.9987 158.46 46.54C157.928 47.072 157.662 47.7253 157.662 48.5C157.662 49.2747 157.928 49.9327 158.46 50.474ZM166.768 43.88V43.068H170.408V43.88H166.768ZM170.744 45H171.528V52H170.604V46.61L166.432 52H165.648V45H166.572V50.39L170.744 45ZM182.848 51.118C182.139 51.818 181.271 52.168 180.244 52.168C179.217 52.168 178.345 51.818 177.626 51.118C176.917 50.4087 176.562 49.536 176.562 48.5C176.562 47.464 176.917 46.596 177.626 45.896C178.345 45.1867 179.217 44.832 180.244 44.832C181.271 44.832 182.139 45.1867 182.848 45.896C183.567 46.596 183.926 47.464 183.926 48.5C183.926 49.536 183.567 50.4087 182.848 51.118ZM178.284 50.474C178.816 51.006 179.469 51.272 180.244 51.272C181.019 51.272 181.672 51.006 182.204 50.474C182.736 49.9327 183.002 49.2747 183.002 48.5C183.002 47.7253 182.736 47.072 182.204 46.54C181.672 45.9987 181.019 45.728 180.244 45.728C179.469 45.728 178.816 45.9987 178.284 46.54C177.752 47.072 177.486 47.7253 177.486 48.5C177.486 49.2747 177.752 49.9327 178.284 50.474ZM188.58 52.168C187.572 52.168 186.732 51.8367 186.06 51.174C185.388 50.502 185.052 49.634 185.052 48.57C185.052 47.3753 185.23 46.4607 185.584 45.826C185.939 45.182 186.658 44.5987 187.74 44.076C187.946 43.9733 188.216 43.852 188.552 43.712C188.898 43.572 189.154 43.46 189.322 43.376C189.5 43.292 189.691 43.1847 189.896 43.054C190.102 42.914 190.256 42.76 190.358 42.592C190.461 42.424 190.526 42.2233 190.554 41.99L191.282 42.41C191.245 42.634 191.17 42.844 191.058 43.04C190.946 43.236 190.83 43.3947 190.708 43.516C190.596 43.6373 190.414 43.7727 190.162 43.922C189.92 44.062 189.728 44.1647 189.588 44.23C189.458 44.286 189.224 44.384 188.888 44.524C188.562 44.664 188.342 44.7573 188.23 44.804C187.577 45.084 187.096 45.378 186.788 45.686C186.48 45.9847 186.261 46.3767 186.13 46.862C186.448 46.442 186.849 46.134 187.334 45.938C187.829 45.7327 188.31 45.63 188.776 45.63C189.71 45.63 190.48 45.938 191.086 46.554C191.702 47.1607 192.01 47.94 192.01 48.892C192.01 49.8347 191.684 50.6187 191.03 51.244C190.386 51.86 189.57 52.168 188.58 52.168ZM188.58 51.244C189.308 51.244 189.906 51.0247 190.372 50.586C190.848 50.138 191.086 49.5733 191.086 48.892C191.086 48.2013 190.862 47.6367 190.414 47.198C189.976 46.75 189.388 46.526 188.65 46.526C187.988 46.526 187.386 46.736 186.844 47.156C186.303 47.5667 186.032 48.1173 186.032 48.808C186.032 49.5173 186.275 50.1007 186.76 50.558C187.255 51.0153 187.862 51.244 188.58 51.244ZM196.964 47.66C197.617 47.66 198.168 47.8653 198.616 48.276C199.073 48.6773 199.302 49.1953 199.302 49.83C199.302 50.4647 199.073 50.9873 198.616 51.398C198.168 51.7993 197.617 52 196.964 52H194.122V45.896H192.162V45H195.046V47.66H196.964ZM196.964 51.104C197.356 51.104 197.687 50.9873 197.958 50.754C198.238 50.5207 198.378 50.2127 198.378 49.83C198.378 49.4473 198.238 49.1393 197.958 48.906C197.687 48.6727 197.356 48.556 196.964 48.556H195.046V51.104H196.964ZM203.868 44.832C204.904 44.832 205.74 45.2007 206.374 45.938C207.018 46.666 207.34 47.5293 207.34 48.528C207.34 48.6307 207.331 48.7753 207.312 48.962H201.166C201.26 49.6713 201.558 50.236 202.062 50.656C202.576 51.0667 203.206 51.272 203.952 51.272C204.484 51.272 204.942 51.1647 205.324 50.95C205.716 50.726 206.01 50.4367 206.206 50.082L207.018 50.558C206.71 51.0527 206.29 51.4447 205.758 51.734C205.226 52.0233 204.62 52.168 203.938 52.168C202.837 52.168 201.941 51.8227 201.25 51.132C200.56 50.4413 200.214 49.564 200.214 48.5C200.214 47.4547 200.555 46.582 201.236 45.882C201.918 45.182 202.795 44.832 203.868 44.832ZM203.868 45.728C203.14 45.728 202.529 45.9473 202.034 46.386C201.549 46.8153 201.26 47.3753 201.166 48.066H206.388C206.295 47.3287 206.01 46.7547 205.534 46.344C205.058 45.9333 204.503 45.728 203.868 45.728ZM214.466 52H213.234L209.734 48.626V52H208.81V45H209.734V48.094L213.066 45H214.326L210.714 48.36L214.466 52ZM220.768 45V45.896H218.29V52H217.366V45.896H214.888V45H220.768Z" fill="#222222"/>
<g filter="url(#filter0_d_50_424)">
<path fill-rule="evenodd" clip-rule="evenodd" d="M268.064 12.5017L258.409 15.0777L258.406 15.0729L254.877 16.0166L254.878 16.0177L253.196 16.4677C252.42 16.6746 251.812 17.2821 251.602 18.065L251.158 19.7452C250.523 19.2053 249.874 18.6203 249.204 17.95C244.479 13.2102 243.133 9.12727 243.588 8.43889C243.85 8.26337 244.577 8.34081 245.628 8.75H252.164C250.714 7.62682 249.264 6.70868 247.901 6.06112C244.138 4.27905 242.186 5.0709 241.22 6.04756C238.25 9.0263 242.043 15.5431 246.827 20.3345C247.926 21.4367 249.074 22.4264 250.218 23.3042L247.65 32.9775C247.444 33.7538 247.668 34.5794 248.233 35.1463L274.353 61.3407C274.774 61.7615 275.338 62 275.938 62C276.535 62 277.1 61.764 277.524 61.3407L296.34 42.462C297.221 41.5822 297.221 40.1607 296.344 39.2809L270.226 13.0865C269.66 12.5156 268.838 12.2968 268.064 12.5017ZM256.503 26.7365C257.191 26.9208 257.794 27.0067 258.326 27.0042C259.658 27.0042 260.522 26.5136 261.069 25.9602C261.727 25.3034 261.736 24.2278 261.078 23.571C260.416 22.9142 259.36 22.9097 258.699 23.569C258.409 23.7603 257.55 23.6273 256.337 23.1126C256.525 22.7053 256.775 22.3187 257.109 21.9857C258.638 20.4471 261.126 20.4471 262.655 21.9857C264.189 23.5223 264.189 26.0169 262.655 27.5535C261.126 29.0921 258.638 29.0921 257.104 27.5535C256.862 27.3014 256.667 27.0248 256.503 26.7365ZM266.18 30.4561L264.672 31.9641L268.72 36.0118L270.228 34.5038L266.18 30.4561ZM285.125 37.7873L266.87 42.3681L268.572 44.0701L286.827 39.4894L285.125 37.7873ZM272.083 36.326C272.204 36.948 272.508 37.5021 272.995 37.9884C273.481 38.4747 274.035 38.7788 274.657 38.9006C275.29 39.0115 275.945 38.938 276.622 38.6802C277.311 38.4115 277.976 37.9564 278.617 37.3149C279.259 36.6733 279.708 36.0138 279.966 35.3365C280.224 34.6591 280.297 34.004 280.187 33.3712C280.076 32.7383 279.777 32.1787 279.291 31.6924C278.804 31.2061 278.245 30.9075 277.612 30.7966C276.979 30.6857 276.319 30.7544 275.632 31.0027C274.955 31.2605 274.296 31.7102 273.654 32.3517C273.012 32.9933 272.557 33.6582 272.289 34.3464C272.04 35.0333 271.972 35.6932 272.083 36.326ZM275.531 36.9686C275.046 37.0715 274.647 36.9656 274.332 36.6509C274.027 36.3458 273.927 35.9409 274.031 35.4362C274.145 34.941 274.501 34.3944 275.099 33.7963C275.708 33.1874 276.254 32.8315 276.738 32.7286C277.243 32.6244 277.648 32.7248 277.953 33.0299C278.268 33.3446 278.368 33.7495 278.255 34.2447C278.152 34.729 277.796 35.2756 277.187 35.8846C276.578 36.4935 276.026 36.8549 275.531 36.9686ZM273.494 48.5025C273.625 49.1341 273.929 49.6882 274.406 50.165C274.902 50.6608 275.461 50.9696 276.083 51.0914C276.716 51.2023 277.371 51.1288 278.048 50.871C278.736 50.6024 279.401 50.1473 280.043 49.5057C280.684 48.8641 281.134 48.2047 281.392 47.5273C281.65 46.85 281.723 46.1949 281.612 45.562C281.501 44.9291 281.198 44.3648 280.702 43.869C280.225 43.3922 279.666 43.0936 279.023 42.9732C278.39 42.8623 277.735 42.9357 277.058 43.1935C276.381 43.4513 275.721 43.901 275.08 44.5425C274.438 45.1841 273.983 45.849 273.714 46.5372C273.456 47.2146 273.383 47.8697 273.494 48.5025ZM276.942 49.1451C276.458 49.248 276.058 49.1421 275.744 48.8275C275.438 48.5223 275.333 48.1229 275.426 47.629C275.54 47.1338 275.901 46.5818 276.51 45.9728C277.119 45.3639 277.666 45.008 278.15 44.9051C278.655 44.8009 279.059 44.9013 279.365 45.2065C279.679 45.5211 279.78 45.926 279.666 46.4212C279.552 46.9164 279.196 47.463 278.598 48.0611C277.989 48.67 277.437 49.0314 276.942 49.1451Z" fill="black"/>
<path fill-rule="evenodd" clip-rule="evenodd" d="M268.064 12.5017L258.409 15.0777L258.406 15.0729L254.877 16.0166L254.878 16.0177L253.196 16.4677C252.42 16.6746 251.812 17.2821 251.602 18.065L251.158 19.7452C250.523 19.2053 249.874 18.6203 249.204 17.95C244.479 13.2102 243.133 9.12727 243.588 8.43889C243.85 8.26337 244.577 8.34081 245.628 8.75H252.164C250.714 7.62682 249.264 6.70868 247.901 6.06112C244.138 4.27905 242.186 5.0709 241.22 6.04756C238.25 9.0263 242.043 15.5431 246.827 20.3345C247.926 21.4367 249.074 22.4264 250.218 23.3042L247.65 32.9775C247.444 33.7538 247.668 34.5794 248.233 35.1463L274.353 61.3407C274.774 61.7615 275.338 62 275.938 62C276.535 62 277.1 61.764 277.524 61.3407L296.34 42.462C297.221 41.5822 297.221 40.1607 296.344 39.2809L270.226 13.0865C269.66 12.5156 268.838 12.2968 268.064 12.5017ZM256.503 26.7365C257.191 26.9208 257.794 27.0067 258.326 27.0042C259.658 27.0042 260.522 26.5136 261.069 25.9602C261.727 25.3034 261.736 24.2278 261.078 23.571C260.416 22.9142 259.36 22.9097 258.699 23.569C258.409 23.7603 257.55 23.6273 256.337 23.1126C256.525 22.7053 256.775 22.3187 257.109 21.9857C258.638 20.4471 261.126 20.4471 262.655 21.9857C264.189 23.5223 264.189 26.0169 262.655 27.5535C261.126 29.0921 258.638 29.0921 257.104 27.5535C256.862 27.3014 256.667 27.0248 256.503 26.7365ZM266.18 30.4561L264.672 31.9641L268.72 36.0118L270.228 34.5038L266.18 30.4561ZM285.125 37.7873L266.87 42.3681L268.572 44.0701L286.827 39.4894L285.125 37.7873ZM272.083 36.326C272.204 36.948 272.508 37.5021 272.995 37.9884C273.481 38.4747 274.035 38.7788 274.657 38.9006C275.29 39.0115 275.945 38.938 276.622 38.6802C277.311 38.4115 277.976 37.9564 278.617 37.3149C279.259 36.6733 279.708 36.0138 279.966 35.3365C280.224 34.6591 280.297 34.004 280.187 33.3712C280.076 32.7383 279.777 32.1787 279.291 31.6924C278.804 31.2061 278.245 30.9075 277.612 30.7966C276.979 30.6857 276.319 30.7544 275.632 31.0027C274.955 31.2605 274.296 31.7102 273.654 32.3517C273.012 32.9933 272.557 33.6582 272.289 34.3464C272.04 35.0333 271.972 35.6932 272.083 36.326ZM275.531 36.9686C275.046 37.0715 274.647 36.9656 274.332 36.6509C274.027 36.3458 273.927 35.9409 274.031 35.4362C274.145 34.941 274.501 34.3944 275.099 33.7963C275.708 33.1874 276.254 32.8315 276.738 32.7286C277.243 32.6244 277.648 32.7248 277.953 33.0299C278.268 33.3446 278.368 33.7495 278.255 34.2447C278.152 34.729 277.796 35.2756 277.187 35.8846C276.578 36.4935 276.026 36.8549 275.531 36.9686ZM273.494 48.5025C273.625 49.1341 273.929 49.6882 274.406 50.165C274.902 50.6608 275.461 50.9696 276.083 51.0914C276.716 51.2023 277.371 51.1288 278.048 50.871C278.736 50.6024 279.401 50.1473 280.043 49.5057C280.684 48.8641 281.134 48.2047 281.392 47.5273C281.65 46.85 281.723 46.1949 281.612 45.562C281.501 44.9291 281.198 44.3648 280.702 43.869C280.225 43.3922 279.666 43.0936 279.023 42.9732C278.39 42.8623 277.735 42.9357 277.058 43.1935C276.381 43.4513 275.721 43.901 275.08 44.5425C274.438 45.1841 273.983 45.849 273.714 46.5372C273.456 47.2146 273.383 47.8697 273.494 48.5025ZM276.942 49.1451C276.458 49.248 276.058 49.1421 275.744 48.8275C275.438 48.5223 275.333 48.1229 275.426 47.629C275.54 47.1338 275.901 46.5818 276.51 45.9728C277.119 45.3639 277.666 45.008 278.15 44.9051C278.655 44.8009 279.059 44.9013 279.365 45.2065C279.679 45.5211 279.78 45.926 279.666 46.4212C279.552 46.9164 279.196 47.463 278.598 48.0611C277.989 48.67 277.437 49.0314 276.942 49.1451Z" fill="url(#paint0_linear_50_424)"/>
<path fill-rule="evenodd" clip-rule="evenodd" d="M268.064 12.5017L258.409 15.0777L258.406 15.0729L254.877 16.0166L254.878 16.0177L253.196 16.4677C252.42 16.6746 251.812 17.2821 251.602 18.065L251.158 19.7452C250.523 19.2053 249.874 18.6203 249.204 17.95C244.479 13.2102 243.133 9.12727 243.588 8.43889C243.85 8.26337 244.577 8.34081 245.628 8.75H252.164C250.714 7.62682 249.264 6.70868 247.901 6.06112C244.138 4.27905 242.186 5.0709 241.22 6.04756C238.25 9.0263 242.043 15.5431 246.827 20.3345C247.926 21.4367 249.074 22.4264 250.218 23.3042L247.65 32.9775C247.444 33.7538 247.668 34.5794 248.233 35.1463L274.353 61.3407C274.774 61.7615 275.338 62 275.938 62C276.535 62 277.1 61.764 277.524 61.3407L296.34 42.462C297.221 41.5822 297.221 40.1607 296.344 39.2809L270.226 13.0865C269.66 12.5156 268.838 12.2968 268.064 12.5017ZM256.503 26.7365C257.191 26.9208 257.794 27.0067 258.326 27.0042C259.658 27.0042 260.522 26.5136 261.069 25.9602C261.727 25.3034 261.736 24.2278 261.078 23.571C260.416 22.9142 259.36 22.9097 258.699 23.569C258.409 23.7603 257.55 23.6273 256.337 23.1126C256.525 22.7053 256.775 22.3187 257.109 21.9857C258.638 20.4471 261.126 20.4471 262.655 21.9857C264.189 23.5223 264.189 26.0169 262.655 27.5535C261.126 29.0921 258.638 29.0921 257.104 27.5535C256.862 27.3014 256.667 27.0248 256.503 26.7365ZM266.18 30.4561L264.672 31.9641L268.72 36.0118L270.228 34.5038L266.18 30.4561ZM285.125 37.7873L266.87 42.3681L268.572 44.0701L286.827 39.4894L285.125 37.7873ZM272.083 36.326C272.204 36.948 272.508 37.5021 272.995 37.9884C273.481 38.4747 274.035 38.7788 274.657 38.9006C275.29 39.0115 275.945 38.938 276.622 38.6802C277.311 38.4115 277.976 37.9564 278.617 37.3149C279.259 36.6733 279.708 36.0138 279.966 35.3365C280.224 34.6591 280.297 34.004 280.187 33.3712C280.076 32.7383 279.777 32.1787 279.291 31.6924C278.804 31.2061 278.245 30.9075 277.612 30.7966C276.979 30.6857 276.319 30.7544 275.632 31.0027C274.955 31.2605 274.296 31.7102 273.654 32.3517C273.012 32.9933 272.557 33.6582 272.289 34.3464C272.04 35.0333 271.972 35.6932 272.083 36.326ZM275.531 36.9686C275.046 37.0715 274.647 36.9656 274.332 36.6509C274.027 36.3458 273.927 35.9409 274.031 35.4362C274.145 34.941 274.501 34.3944 275.099 33.7963C275.708 33.1874 276.254 32.8315 276.738 32.7286C277.243 32.6244 277.648 32.7248 277.953 33.0299C278.268 33.3446 278.368 33.7495 278.255 34.2447C278.152 34.729 277.796 35.2756 277.187 35.8846C276.578 36.4935 276.026 36.8549 275.531 36.9686ZM273.494 48.5025C273.625 49.1341 273.929 49.6882 274.406 50.165C274.902 50.6608 275.461 50.9696 276.083 51.0914C276.716 51.2023 277.371 51.1288 278.048 50.871C278.736 50.6024 279.401 50.1473 280.043 49.5057C280.684 48.8641 281.134 48.2047 281.392 47.5273C281.65 46.85 281.723 46.1949 281.612 45.562C281.501 44.9291 281.198 44.3648 280.702 43.869C280.225 43.3922 279.666 43.0936 279.023 42.9732C278.39 42.8623 277.735 42.9357 277.058 43.1935C276.381 43.4513 275.721 43.901 275.08 44.5425C274.438 45.1841 273.983 45.849 273.714 46.5372C273.456 47.2146 273.383 47.8697 273.494 48.5025ZM276.942 49.1451C276.458 49.248 276.058 49.1421 275.744 48.8275C275.438 48.5223 275.333 48.1229 275.426 47.629C275.54 47.1338 275.901 46.5818 276.51 45.9728C277.119 45.3639 277.666 45.008 278.15 44.9051C278.655 44.8009 279.059 44.9013 279.365 45.2065C279.679 45.5211 279.78 45.926 279.666 46.4212C279.552 46.9164 279.196 47.463 278.598 48.0611C277.989 48.67 277.437 49.0314 276.942 49.1451Z" fill="url(#paint1_linear_50_424)" fill-opacity="0.4"/>
</g>
<defs>
<filter id="filter0_d_50_424" x="232.663" y="0.495634" width="71.8461" height="72.0146" filterUnits="userSpaceOnUse" color-interpolation-filters="sRGB">
<feFlood flood-opacity="0" result="BackgroundImageFix"/>
<feColorMatrix in="SourceAlpha" type="matrix" values="0 0 0 0 0 0 0 0 0 0 0 0 0 0 0 0 0 0 127 0" result="hardAlpha"/>
<feOffset dy="3.00291"/>
<feGaussianBlur stdDeviation="3.75364"/>
<feComposite in2="hardAlpha" operator="out"/>
<feColorMatrix type="matrix" values="0 0 0 0 0.133333 0 0 0 0 0.133333 0 0 0 0 0.133333 0 0 0 0.1 0"/>
<feBlend mode="normal" in2="BackgroundImageFix" result="effect1_dropShadow_50_424"/>
<feBlend mode="normal" in="SourceGraphic" in2="effect1_dropShadow_50_424" result="shape"/>
</filter>
<linearGradient id="paint0_linear_50_424" x1="241.575" y1="4.72581" x2="298.459" y2="67.6504" gradientUnits="userSpaceOnUse">
<stop stop-color="#E82034"/>
<stop offset="1" stop-color="#C10F16"/>
</linearGradient>
<linearGradient id="paint1_linear_50_424" x1="251.503" y1="-5.98089" x2="310.615" y2="32.9048" gradientUnits="userSpaceOnUse">
<stop stop-color="white" stop-opacity="0"/>
<stop offset="0.500748" stop-color="white"/>
<stop offset="1" stop-color="white" stop-opacity="0"/>
</linearGradient>
</defs>
</svg>
