<svg width="50" height="50" viewBox="0 0 50 50" fill="none" xmlns="http://www.w3.org/2000/svg">
<path fill-rule="evenodd" clip-rule="evenodd" d="M1.25 50H16.25C16.9374 50 17.5 49.4374 17.5 48.75C17.5 48.0626 16.9374 47.5 16.25 47.5H1.25C0.562571 47.5 0 48.0626 0 48.75C0 49.4374 0.562571 50 1.25 50ZM33.75 50H48.75C49.4374 50 50 49.4374 50 48.75C50 48.0626 49.4374 47.5 48.75 47.5H33.75C33.0626 47.5 32.5 48.0626 32.5 48.75C32.5 49.4374 33.0626 50 33.75 50ZM28.75 34.05C28.0873 34.6499 27.2126 35.0001 26.25 35.0001H23.75C22.7874 35.0001 21.9127 34.6377 21.25 34.05V40.5626L19.3373 41.7376C18.8124 42.0626 18.5997 42.7128 18.8372 43.2875L21.3372 49.2376C21.537 49.7001 21.9873 50 22.4871 50H27.4871C27.9872 50 28.4497 49.7001 28.637 49.2376L31.137 43.2875C31.3745 42.7249 31.1621 42.0626 30.6369 41.7376L28.7242 40.5626V34.05H28.75ZM13.75 43.75H11.25C10.5626 43.75 10 44.3126 10 45C10 45.6874 10.5626 46.25 11.25 46.25H13.75C14.4374 46.25 15 45.6874 15 45C15 44.3126 14.4374 43.75 13.75 43.75ZM36.25 46.25H38.75C39.4374 46.25 40 45.6874 40 45C40 44.3126 39.4374 43.75 38.75 43.75H36.25C35.5626 43.75 35 44.3126 35 45C35 45.6874 35.5626 46.25 36.25 46.25ZM12.7125 39.4374L15.2125 43.1874C15.6 43.7625 16.375 43.9125 16.9501 43.5376C17.5252 43.1501 17.6752 42.3751 17.3003 41.8L14.8003 38.05C14.4128 37.4749 13.6378 37.3249 13.0627 37.6998C12.4875 38.0873 12.3376 38.8623 12.7125 39.4374ZM35.2125 38.05L32.7125 41.8C32.325 42.3751 32.4875 43.1501 33.0627 43.5376C33.6378 43.9251 34.4128 43.7625 34.8003 43.1874L37.3003 39.4374C37.6877 38.8623 37.5252 38.0873 36.9501 37.6998C36.375 37.3123 35.6 37.4749 35.2125 38.05ZM16.25 5H13.75C13.0626 5 12.5 5.56257 12.5 6.25V7.5H6.25C5.56257 7.5 5 8.06257 5 8.75C5 9.43743 5.56257 10 6.25 10H12.5V11.25C12.5 11.9374 13.0626 12.5 13.75 12.5H16.25V13.75C16.25 13.9125 16.2877 14.0751 16.3501 14.2376L17.4124 16.7627L17.4749 22.5502C17.4874 24.1751 18.5498 25.5503 19.9999 26.0501V28.7499C19.9999 30.8247 21.6751 32.4999 23.7499 32.4999H26.2499C28.3248 32.4999 29.9999 30.8247 29.9999 28.7499V26.0501C31.4624 25.5499 32.5125 24.1751 32.525 22.5502L32.5875 16.7627L33.6498 14.2376C33.7122 14.0876 33.7499 13.9251 33.7499 13.75V12.5H36.2499C36.9373 12.5 37.4999 11.9374 37.4999 11.25V10H43.7499C44.4373 10 44.9999 9.43743 44.9999 8.75C44.9999 8.06257 44.4373 7.5 43.7499 7.5H37.4999V6.25C37.4999 5.56257 36.9373 5 36.2499 5H33.7499V3.75C33.7499 1.67518 32.0747 0 29.9999 0H19.9999C17.9251 0 16.2499 1.67518 16.2499 3.75L16.25 5ZM25 3.75C24.0001 3.75 23.05 4.15004 22.35 4.85C21.65 5.54998 21.25 6.51259 21.25 7.5V15C21.25 15.9999 21.65 16.95 22.35 17.65C23.05 18.35 24.0126 18.75 25 18.75C25.9874 18.75 26.95 18.35 27.65 17.65C28.35 16.95 28.75 15.9874 28.75 15V7.5C28.75 6.50009 28.35 5.55 27.65 4.85C26.95 4.15002 25.9874 3.75 25 3.75ZM25 16.25C24.6624 16.25 24.3499 16.1126 24.1124 15.8876C23.8749 15.6501 23.75 15.3376 23.75 15V7.5C23.75 7.16239 23.8874 6.84989 24.1124 6.61238C24.3499 6.37486 24.6624 6.25 25 6.25C25.3376 6.25 25.6501 6.38742 25.8876 6.61238C26.1251 6.84989 26.25 7.16239 26.25 7.5V15C26.25 15.3376 26.1126 15.6501 25.8876 15.8876C25.6501 16.1251 25.3376 16.25 25 16.25Z" fill="#DA8E49"/>
</svg>
