<svg width="50" height="50" viewBox="0 0 50 50" fill="none" xmlns="http://www.w3.org/2000/svg">
<path fill-rule="evenodd" clip-rule="evenodd" d="M32.7905 40.5059V48.7559C32.7905 49.4432 32.23 50 31.5389 50H2.82505C2.13402 50 1.57422 49.4432 1.57422 48.7559V40.5059H32.7905ZM9.6772 18.2237H42.9752C44.3255 18.2237 45.6211 18.7575 46.5765 19.7067C47.5318 20.6564 48.0692 21.9439 48.0692 23.2868V26.2943C47.7875 26.2095 47.4888 26.1642 47.1793 26.1642H39.0362C37.3373 26.1642 35.9603 27.5337 35.9603 29.2217V37.1982C35.9603 38.8869 37.3373 40.2557 39.0362 40.2557H47.1793C47.4888 40.2557 47.7875 40.2104 48.0692 40.1256V43.1331C48.0692 44.476 47.5318 45.7635 46.5765 46.7132C45.6219 47.6628 44.3259 48.1959 42.9749 48.1959H34.6152V31.4347C34.6152 29.746 33.2382 28.3772 31.5393 28.3772H4.58335V23.2864C4.58335 21.9435 5.1207 20.656 6.07607 19.7064C7.03067 18.7567 8.32668 18.2233 9.6773 18.2233L9.6772 18.2237ZM32.7905 38.6922H1.5744V35.9967H32.7905V38.6922ZM48.4296 29.2217C48.4296 28.5348 47.8694 27.9784 47.1787 27.9784H39.0357C38.3443 27.9784 37.7841 28.5351 37.7841 29.2217V37.1982C37.7841 37.8851 38.3442 38.4423 39.0357 38.4423H47.1787C47.8698 38.4423 48.4296 37.8852 48.4296 37.1982V29.2217ZM1.5744 34.1828V31.4348C1.5744 30.7476 2.13454 30.1908 2.82523 30.1908H31.5391C32.2301 30.1908 32.7907 30.7475 32.7907 31.4348V34.1828H1.5744ZM34.1643 16.4094H28.2581C27.9862 13.4573 25.486 11.1432 22.4464 11.1432C19.4063 11.1432 16.9061 13.4573 16.6346 16.4094H10.7277V2.03158C10.7277 0.909785 11.6429 0 12.7715 0H32.1208C33.2494 0 34.1635 0.909757 34.1635 2.03158L34.1639 2.06213V16.4096L34.1643 16.4094ZM18.4706 16.4094C18.7338 14.4609 20.415 12.9569 22.4465 12.9569C24.4779 12.9569 26.159 14.4609 26.4223 16.4094H18.4706ZM35.9889 2.07299H37.8551C38.9836 2.07299 39.8985 2.98275 39.8985 4.10457L39.8989 16.4093H35.9888L35.9889 2.07299Z" fill="#DA8E49"/>
</svg>
