<svg width="50" height="50" viewBox="0 0 50 50" fill="none" xmlns="http://www.w3.org/2000/svg">
<path fill-rule="evenodd" clip-rule="evenodd" d="M11.5434 11.9372H31.4507C31.7159 11.9372 31.9313 11.7361 31.9313 11.4857V10.969C31.9313 10.7195 31.7159 10.5194 31.4507 10.5194H11.5434C11.2783 10.5194 11.0619 10.7195 11.0619 10.969V11.4857C11.061 11.7352 11.2783 11.9372 11.5434 11.9372ZM45 27.7191H28.7935V50H44.9991L45 27.7191ZM39.0841 43.6993H43.9762V44.6898H39.0841V43.6993ZM37.4997 30.5874H42.2639V31.5779H32.0874V30.5874H37.4997ZM37.577 34.327H38.0723V35.3176H30.3723V34.327H37.577ZM32.9886 37.4503H43.0362V38.4409H30.3733V37.4512L32.9886 37.4503ZM30.3722 40.5755H43.977V41.5661H30.3722V40.5755ZM21.3198 24.4531C25.5104 24.4531 28.9286 19.5218 29.1219 13.3288H13.5185C13.7109 19.5216 17.129 24.4531 21.3198 24.4531ZM28.3027 21.9663C31.222 22.2363 33.7961 23.7492 35.4981 25.9769H27.0699V39.1799C25.2167 39.5243 23.2927 39.704 21.3205 39.704C15.6947 39.704 10.4665 38.2331 6.11117 35.7158C5.40506 35.3062 5 34.6005 5 33.7766V32.3168C5 26.9125 9.1142 22.4496 14.3358 21.9662C15.9368 24.7759 18.4694 26.5922 21.3215 26.5922C24.1718 26.5922 26.7034 24.7777 28.3025 21.9662L28.3027 21.9663ZM26.397 1.70291L25.7425 5.50401C25.6366 6.11008 25.0658 6.51598 24.4665 6.40985C23.869 6.30465 23.4658 5.72559 23.5707 5.12045L24.3643 0.538098C23.4796 0.187111 22.5341 0 21.5518 0C20.4976 0 19.4859 0.217846 18.5469 0.618176L19.3147 5.06086C19.4205 5.66694 19.0173 6.246 18.4198 6.35027C17.8205 6.45454 17.2488 6.04957 17.1448 5.44536L16.5234 1.84707C14.5118 3.48187 13.0905 6.07264 12.7212 9.07058H30.3814C29.9975 5.98446 28.5061 3.32828 26.397 1.70288V1.70291Z" fill="#DA8E49"/>
</svg>
