<svg width="50" height="50" viewBox="0 0 50 50" fill="none" xmlns="http://www.w3.org/2000/svg">
<path d="M16.8042 33.5701C16.8042 34.0578 16.4067 34.4531 15.9158 34.4531C15.4249 34.4531 15.0273 34.0578 15.0273 33.5701C15.0273 33.0828 15.4249 32.6875 15.9158 32.6875C16.4067 32.6875 16.8042 33.0828 16.8042 33.5701Z" fill="#DA8E49"/>
<path d="M10.8124 19.7345C10.8124 20.2219 10.4145 20.6172 9.9236 20.6172C9.43303 20.6172 9.03516 20.2219 9.03516 19.7345C9.03516 19.2468 9.43304 18.8516 9.9236 18.8516C10.4145 18.8516 10.8124 19.2468 10.8124 19.7345Z" fill="#DA8E49"/>
<path d="M26.5017 24.211H32.7378C33.2255 24.211 33.6262 23.8124 33.6262 23.3283V16.1486C33.6262 15.6641 33.2251 15.266 32.7378 15.266L0.888444 15.2656C0.400777 15.2656 0 15.6641 0 16.1482V23.328C0 23.8124 0.401139 24.2106 0.888444 24.2106H7.12457L26.5017 24.211ZM15.9164 17.2891C17.277 17.2891 18.378 18.3829 18.378 19.7345C18.378 21.0862 17.277 22.18 15.9164 22.18C14.5558 22.18 13.4549 21.0862 13.4549 19.7345C13.4549 18.3829 14.5558 17.2891 15.9164 17.2891ZM9.92395 17.2891C11.2845 17.2891 12.3855 18.3829 12.3855 19.7345C12.3855 21.0862 11.2845 22.18 9.92395 22.18C8.56337 22.18 7.4624 21.0862 7.4624 19.7345C7.46276 18.3829 8.57134 17.2891 9.92395 17.2891ZM3.93982 22.1799C2.57925 22.1799 1.47827 21.0861 1.47827 19.7345C1.47827 18.3828 2.57925 17.289 3.93982 17.289C5.3004 17.289 6.40137 18.3828 6.40137 19.7345C6.40101 21.0861 5.29243 22.1799 3.93982 22.1799Z" fill="#DA8E49"/>
<path d="M10.8124 33.5701C10.8124 34.0578 10.4145 34.4531 9.9236 34.4531C9.43303 34.4531 9.03516 34.0578 9.03516 33.5701C9.03516 33.0828 9.43304 32.6875 9.9236 32.6875C10.4145 32.6875 10.8124 33.0828 10.8124 33.5701Z" fill="#DA8E49"/>
<path d="M4.82803 33.5701C4.82803 34.0578 4.43014 34.4531 3.93959 34.4531C3.44866 34.4531 3.05078 34.0578 3.05078 33.5701C3.05078 33.0828 3.44867 32.6875 3.93959 32.6875C4.43015 32.6875 4.82803 33.0828 4.82803 33.5701Z" fill="#DA8E49"/>
<path d="M7.91016 25.7734H25.7061V27.5391H7.91016V25.7734Z" fill="#DA8E49"/>
<path d="M42.8663 9.92181C41.2936 9.92181 40.0116 8.64823 40.0116 7.08581V0H12.6453C11.9375 0 11.3633 0.570432 11.3633 1.27358V13.7028H32.7377C34.0983 13.7028 35.1992 14.7965 35.1992 16.1482V23.3279C35.1992 24.6796 34.0983 25.7733 32.7377 25.7733H27.2879V27.539H32.7377C34.0983 27.539 35.1992 28.6327 35.1992 29.9844V37.1641C35.1992 38.5158 34.0983 39.6095 32.7377 39.6095L11.3633 39.6092V48.7264C11.3633 49.4296 11.9375 50 12.6453 50H48.7172C49.425 50 49.9992 49.4296 49.9992 48.7264V9.92145L42.8663 9.92181ZM35.1987 9.14061C35.1987 9.57041 34.845 9.92181 34.4123 9.92181H13.9267C13.4941 9.92181 13.1404 9.57041 13.1404 9.14061L13.14 2.54685C13.14 2.11704 13.4937 1.76565 13.9264 1.76565H34.412C34.8446 1.76565 35.1983 2.11704 35.1983 2.54685L35.1987 9.14061Z" fill="#DA8E49"/>
<path d="M4.82803 19.7345C4.82803 20.2219 4.43014 20.6172 3.93959 20.6172C3.44866 20.6172 3.05078 20.2219 3.05078 19.7345C3.05078 19.2468 3.44867 18.8516 3.93959 18.8516C4.43015 18.8516 4.82803 19.2468 4.82803 19.7345Z" fill="#DA8E49"/>
<path d="M42.8679 8.35928H48.8915L41.5859 1.10156V7.0857C41.5859 7.78884 42.1601 8.35928 42.8679 8.35928Z" fill="#DA8E49"/>
<path d="M32.7378 38.0465C33.2255 38.0465 33.6262 37.648 33.6262 37.1639V29.9842C33.6262 29.4997 33.2251 29.1016 32.7378 29.1016H0.888443C0.400777 29.1016 0 29.5001 0 29.9842V37.1639C0 37.6484 0.401138 38.0465 0.888443 38.0465H32.7378ZM3.94047 36.0154C2.5799 36.0154 1.47892 34.9217 1.47892 33.57C1.47892 32.2184 2.5799 31.1246 3.94047 31.1246C5.30105 31.1246 6.40202 32.2184 6.40202 33.57C6.40166 34.9217 5.29308 36.0154 3.94047 36.0154ZM15.9169 31.1247C17.2775 31.1247 18.3784 32.2185 18.3784 33.5701C18.3784 34.9218 17.2775 36.0155 15.9169 36.0155C14.5563 36.0155 13.4553 34.9218 13.4553 33.5701C13.4553 32.2185 14.5563 31.1247 15.9169 31.1247ZM7.46323 33.5701C7.46323 32.2185 8.56421 31.1247 9.92478 31.1247C11.2854 31.1247 12.3863 32.2185 12.3863 33.5701C12.3863 34.9218 11.2854 36.0155 9.92478 36.0155C8.56421 36.0155 7.46323 34.9218 7.46323 33.5701Z" fill="#DA8E49"/>
<path d="M14.7148 3.32812H33.6276V8.36711H14.7148V3.32812Z" fill="#DA8E49"/>
<path d="M16.8042 19.7345C16.8042 20.2219 16.4067 20.6172 15.9158 20.6172C15.4249 20.6172 15.0273 20.2219 15.0273 19.7345C15.0273 19.2468 15.4249 18.8516 15.9158 18.8516C16.4067 18.8516 16.8042 19.2468 16.8042 19.7345Z" fill="#DA8E49"/>
</svg>
