<svg width="50" height="50" viewBox="0 0 50 50" fill="none" xmlns="http://www.w3.org/2000/svg">
<path d="M33.9745 8.30078C34.2469 8.3281 34.5173 8.37955 34.7832 8.45422L43 10.7537V19.6234C40.1289 20.8041 36.9318 20.4271 34.3428 18.6035C34.2249 18.5206 34.1017 18.4478 33.9745 18.3849C33.7704 18.2839 33.5557 18.2115 33.3358 18.1691L32.6235 18.0284L28.9185 17.2958L27.7509 17.0645C27.32 16.9857 27.0028 16.57 27 16.081C27.0004 16.0254 27.0037 15.9699 27.0098 15.9148C27.0594 15.5018 27.2419 15.1234 27.5236 14.8516C27.8054 14.5798 28.1664 14.4327 28.538 14.4386H35.582C35.9056 14.4441 36.1885 14.1955 36.2613 13.8422C36.3036 13.6186 36.254 13.3855 36.1259 13.2079C35.9979 13.0299 35.8052 12.9265 35.6011 12.9256H33.9744L33.9745 8.30078Z" fill="#DA8E49"/>
<path d="M44.8282 10H49.1718C49.6293 10 50 10.5134 50 10.9293V20.0707C50 20.5841 49.6293 21 49.1718 21H44.8282C44.3707 21 44 20.4867 44 20.0707V10.9293C44 10.4159 44.3707 10 44.8282 10Z" fill="#DA8E49"/>
<path d="M13 4.28756V30.7123C13.0017 31.3186 13.2413 31.8991 13.6664 32.3279C14.0914 32.7566 14.667 32.9983 15.2681 33H30.7319C31.333 32.9983 31.909 32.7566 32.3336 32.3279C32.7587 31.8991 32.9983 31.3186 33 30.7123V19.4752L27.4174 18.4105C27.0139 18.3267 26.6403 18.1357 26.3346 17.8574C26.0293 17.5787 25.8027 17.2233 25.679 16.8272C25.6146 16.6083 25.5821 16.381 25.5821 16.1525V16.1193C25.5826 16.0168 25.5895 15.9143 25.6025 15.8127C25.6924 15.0634 26.0539 14.3733 26.6174 13.8757C27.1804 13.3785 27.906 13.1085 28.6549 13.1172H32.9999V4.28936V4.2898C32.9982 3.6831 32.7586 3.10165 32.3331 2.67256C31.9076 2.24346 31.3312 2.00174 30.7298 2H15.2682C14.6671 2.00174 14.0915 2.24338 13.6664 2.67212C13.2414 3.10042 13.0018 3.6814 13.0001 4.28769L13 4.28756ZM29.0594 24.0631V28.6093C29.0576 29.2007 28.5824 29.6792 27.996 29.6792C27.4097 29.6792 26.934 29.2007 26.9327 28.6093V24.0631C26.934 23.4717 27.4097 22.9932 27.996 22.9932C28.5824 22.9932 29.0576 23.4717 29.0594 24.0631ZM22.0968 27.9654C22.0955 28.4199 21.9165 28.8556 21.5978 29.1771C21.2796 29.4986 20.848 29.68 20.3974 29.6818H18.8026C18.3516 29.6805 17.9196 29.4995 17.601 29.1776C17.2818 28.8561 17.1024 28.4204 17.1011 27.9655V22.7713C17.1024 22.3163 17.2818 21.8806 17.601 21.5592C17.9197 21.2373 18.3517 21.0563 18.8026 21.055H20.3974C20.848 21.0568 21.2795 21.2382 21.5978 21.5597C21.9165 21.8811 22.0956 22.3168 22.0968 22.7714V27.9654ZM29.0594 6.3933V10.9399C29.0598 11.4458 28.7095 11.8833 28.2187 11.9888C27.7279 12.0944 27.2311 11.8388 27.0269 11.3765C26.9642 11.2399 26.9322 11.0908 26.9327 10.9399V6.39329C26.934 5.80229 27.4096 5.32339 27.996 5.32339C28.5824 5.32339 29.0576 5.8023 29.0593 6.39329L29.0594 6.3933ZM22.259 8.00406C22.2595 8.47468 22.1362 8.93658 21.9018 9.3435C22.2149 9.88957 22.3273 10.5294 22.2188 11.1506C22.1107 11.7721 21.7885 12.3347 21.3099 12.7403C20.8307 13.146 20.2253 13.3684 19.6001 13.3684C18.9748 13.3684 18.3694 13.146 17.8903 12.7403C17.4116 12.3347 17.0894 11.7721 16.9813 11.1506C16.8728 10.5295 16.9852 9.88962 17.2983 9.3435C17.0631 8.937 16.9398 8.47468 16.9411 8.00406C16.9411 7.04582 17.4479 6.16038 18.2704 5.68148C19.0933 5.20214 20.107 5.20214 20.9295 5.68148C21.7524 6.16039 22.2592 7.04582 22.2592 8.00406H22.259Z" fill="#DA8E49"/>
<path d="M41.3837 38.9391L23.7426 47.3722C22.3912 48.0187 20.86 48.1712 19.4099 47.8033L9.21094 45.2277V35.2937C12.7741 33.9716 16.7428 34.3935 19.9554 36.4359C20.3366 36.679 20.7613 36.8447 21.2051 36.9237L28.1376 38.1587C28.7861 38.2608 29.1669 38.7901 29.0056 39.725H29.0053C28.9336 40.1453 28.7053 40.5221 28.3675 40.7779C28.0298 41.0333 27.6078 41.1489 27.1884 41.1003H18.4146C18.0041 41.0953 17.6484 41.3869 17.5691 41.7937C17.5245 42.0414 17.5905 42.2961 17.7498 42.4895C17.9092 42.6825 18.1451 42.7946 18.3941 42.795H27.169C28.3237 42.8119 29.4132 42.2564 30.086 41.308C30.7589 40.3595 30.9293 39.138 30.5427 38.0386L40.5455 36.2715C40.6252 36.2569 40.706 36.2499 40.7872 36.2495C41.4402 36.2515 42.0051 36.7095 42.1481 37.3536C42.2911 37.9977 41.9735 38.6556 41.3838 38.9388L41.3837 38.9391Z" fill="#DA8E49"/>
<path d="M1.07767 33.6738H6.73058C7.32603 33.6738 7.80825 34.2756 7.80825 34.7629V45.4789C7.80825 46.0806 7.32565 46.5679 6.73058 46.5679H1.07767C0.482224 46.5679 0 45.9662 0 45.4789V34.7629C0 34.1611 0.482604 33.6738 1.07767 33.6738Z" fill="#DA8E49"/>
</svg>
