<svg width="50" height="50" viewBox="0 0 50 50" fill="none" xmlns="http://www.w3.org/2000/svg">
<path fill-rule="evenodd" clip-rule="evenodd" d="M8.66343 36.3234C8.20396 36.3234 7.8308 35.9502 7.8308 35.4898C7.8308 35.0299 8.20358 34.6563 8.66343 34.6563H22.1983C21.8769 33.3609 22.4304 31.9306 22.9633 30.7528H8.66312C8.20365 30.7528 7.83049 30.3796 7.83049 29.9193C7.83049 29.4593 8.20327 29.0857 8.66312 29.0857H22.7433C21.7237 28.0503 20.5312 26.7207 20.5855 25.1823H8.66321C8.20374 25.1823 7.83058 24.8091 7.83058 24.3487C7.83058 23.8887 8.20337 23.5151 8.66321 23.5151H21.1863C22.0579 22.34 23.6497 21.6785 24.9532 21.0652C24.912 20.5802 24.8643 20.0971 24.8345 19.6118H8.66324C8.20377 19.6118 7.83061 19.2386 7.83061 18.7782C7.83061 18.3182 8.2034 17.9446 8.66324 17.9446H24.8505C24.9515 17.0012 25.2549 16.0878 26.0089 15.4539C27.5661 14.146 29.9477 14.9189 31.712 15.387C32.6236 14.0923 33.7122 12.3686 35.2912 11.8924V8.21948H30.0435V10.4076L9.47185 10.408V8.21985H4.22378V46.0476H35.2914V41.0187C34.0004 41.9067 32.3461 42.9109 30.7418 42.3266C30.4502 42.22 30.1912 42.0725 29.9599 41.8927L8.6633 41.8924C8.20383 41.8924 7.83067 41.5192 7.83067 41.0588C7.83067 40.5988 8.20345 40.2252 8.6633 40.2252H28.7291C28.3177 39.3281 28.0896 38.3633 27.8329 37.4146C26.3609 37.2811 24.5623 37.2032 23.3403 36.3219L8.66403 36.3222L8.66343 36.3234ZM37.0005 4.26858C38.2342 4.26858 39.2398 5.27567 39.2398 6.51037V13.6156C38.6243 12.8722 37.8743 12.1699 36.9572 11.893V7.38728C36.9572 6.92729 36.5844 6.55371 36.1246 6.55371H30.0442V4.26853L37.0005 4.26858ZM36.1246 38.5891C35.3952 38.5891 32.8036 41.3034 31.3116 40.7603C29.8198 40.2168 29.5774 36.4697 29.019 36.0002C28.46 35.5306 24.7321 35.9424 23.9384 34.5658C23.1447 33.1899 25.365 30.1631 25.2382 29.4439C25.1115 28.7246 21.9911 26.641 22.2672 25.0761C22.5427 23.5112 26.1866 22.621 26.5512 21.9889C26.9159 21.3565 25.8633 17.7527 27.0801 16.7309C28.2962 15.7094 31.6586 17.3729 32.3443 17.1229C33.03 16.8732 34.5377 13.4353 36.1251 13.4353C37.7126 13.4353 39.2206 16.8732 39.906 17.1229C40.5917 17.3726 43.9542 15.7095 45.1702 16.7309C46.3863 17.7524 45.3336 21.3566 45.6984 21.9889C46.0631 22.6213 49.7073 23.5112 49.9823 25.0765C50.2581 26.6414 47.1381 28.7251 47.0113 29.4442C46.8846 30.1635 49.1049 33.1896 48.3111 34.5662C47.5174 35.9421 43.7895 35.531 43.2305 35.9998C42.6715 36.4693 42.4291 40.2161 40.9371 40.7599C39.4449 41.3037 36.8533 38.5891 36.1242 38.5891H36.1246ZM31.8131 28.1765C30.6359 26.998 32.4257 25.2059 33.6028 26.3848L34.9001 27.6835L38.6501 23.8969C39.1415 23.4024 39.9408 23.4002 40.4347 23.8921C40.9286 24.3841 40.9309 25.1843 40.4394 25.6787C38.0227 28.122 38.2247 27.9422 35.7966 30.373C35.3026 30.8676 34.5012 30.8676 34.0068 30.373L31.8131 28.1765ZM36.1246 20.3884C39.8459 20.3884 42.8628 23.4083 42.8628 27.1341C42.8628 30.8596 39.8463 33.8798 36.1246 33.8798C32.4033 33.8798 29.3864 30.86 29.3864 27.1341C29.3864 23.4083 32.4033 20.3884 36.1246 20.3884V20.3884ZM36.1246 18.7221C40.7652 18.7221 44.5276 22.4887 44.5276 27.1345C44.5276 31.7803 40.7652 35.5469 36.1246 35.5469C31.484 35.5469 27.7215 31.7803 27.7215 27.1345C27.7215 22.4887 31.484 18.7221 36.1246 18.7221V18.7221ZM11.1376 2.91396H16.058C16.4606 1.24204 17.9646 0 19.7588 0C21.5522 0 23.0562 1.24204 23.4595 2.91396H28.38V8.74265L11.1377 8.74228L11.1376 2.91396ZM19.7585 2.11533C19.2024 2.11533 18.7514 2.56686 18.7514 3.12355C18.7514 3.68024 19.2024 4.13177 19.7585 4.13177C20.3145 4.13177 20.7656 3.68024 20.7656 3.12355C20.7656 2.56686 20.3145 2.11533 19.7585 2.11533ZM39.2404 42.27V47.7582C39.2404 48.9933 38.2344 50 37.0011 50H2.51663C1.28294 50 0.277344 48.9929 0.277344 47.7582V6.50976C0.277344 5.27469 1.28331 4.26798 2.51663 4.26798H9.47294V6.55316H3.39256C2.93309 6.55316 2.55993 6.92636 2.55993 7.38672V46.8806C2.55993 47.3406 2.93272 47.7142 3.39256 47.7142H36.1253C36.5848 47.7142 36.958 47.341 36.958 46.8806V41.0185C37.6676 41.5068 38.4223 41.9878 39.2402 42.2694L39.2404 42.27ZM8.66452 14.0415C8.20505 14.0415 7.83189 13.6683 7.83189 13.208C7.83189 12.748 8.20468 12.3744 8.66452 12.3744H30.8543C31.3138 12.3744 31.6869 12.7476 31.6869 13.208C31.6869 13.6679 31.3142 14.0415 30.8543 14.0415H8.66452Z" fill="#DA8E49"/>
</svg>
