<svg width="50" height="50" viewBox="0 0 50 50" fill="none" xmlns="http://www.w3.org/2000/svg">
<path d="M1.05303 12.6052C0.455967 12.6662 -0.000792471 13.1781 7.77298e-06 13.7904V22.1169C-0.00233664 22.7779 0.525947 23.3141 1.17376 23.3117C3.99342 23.5842 4.67283 25.2052 4.67053 26.8765C4.67287 29.0501 3.50687 30.229 1.17376 30.4533C0.529038 30.4505 0.00230847 30.9812 7.77298e-06 31.6385V39.965C-0.00233664 40.6259 0.525947 41.1621 1.17376 41.1598H30.3566L30.352 36.3978C30.3406 35.7883 30.7841 35.2684 31.3777 35.1943C32.0791 35.1114 32.6894 35.6783 32.6769 36.3978L32.6816 41.1598H43.1868C43.8319 41.1574 44.3519 40.6224 44.3492 39.965V13.7905C44.3473 13.1364 43.8284 12.6072 43.1868 12.6053H32.6816L32.6769 17.3553C32.8191 19.0756 30.2097 19.0756 30.352 17.3553L30.3566 12.6053H1.17376C1.13391 12.6029 1.09327 12.6029 1.05303 12.6053V12.6052ZM11.6753 19.7349H25.6815C27.2382 19.7349 27.2382 22.1168 25.6815 22.1168H11.6753C10.1186 22.1168 10.1186 19.7349 11.6753 19.7349ZM31.4963 20.9133C32.1512 20.9058 32.6846 21.4496 32.6772 22.1169V24.4969C32.8194 26.2168 30.21 26.2168 30.3522 24.4969V22.1169C30.3448 21.4631 30.8551 20.9253 31.4964 20.9133H31.4963ZM11.5632 25.6913C11.6003 25.6897 11.6375 25.6897 11.675 25.6913H25.6812C27.2379 25.6913 27.2379 28.0709 25.6812 28.0709H11.675C10.1183 28.1474 10.0069 25.7674 11.5632 25.6913ZM31.4963 28.055C32.1512 28.0475 32.6846 28.5889 32.6772 29.2561V31.6385C32.8194 33.3584 30.21 33.3584 30.3522 31.6385V29.2561C30.3448 28.6024 30.8551 28.067 31.4964 28.055H31.4963ZM11.6753 31.6386H25.6815C27.2382 31.6386 27.2382 34.0182 25.6815 34.0182H11.6753C10.1186 34.0182 10.1186 31.6386 11.6753 31.6386Z" fill="#DA8E49"/>
<path d="M6.8191 6.85999C6.17476 6.85999 5.65234 7.39304 5.65234 8.05V10.4367H44.1661C45.4355 10.4411 46.4891 11.5156 46.4934 12.8096V35.4165H48.832C49.4767 35.4165 49.9991 34.8839 49.9991 34.2269V8.04938C49.9991 7.39243 49.4767 6.85938 48.832 6.85938L6.8191 6.85999Z" fill="#DA8E49"/>
</svg>
