<svg width="260" height="40" viewBox="0 0 260 40" fill="none" xmlns="http://www.w3.org/2000/svg">
<path d="M56.232 13.768H57.282V16.876H55.98V15H49.512V16.876H48.21V13.768H49.064C49.6707 13.012 49.974 11.864 49.974 10.324V5.2H56.232V13.768ZM50.534 13.768H54.93V6.418H51.276V10.352C51.276 11.836 51.0287 12.9747 50.534 13.768ZM59.2389 12.06C59.3603 12.6853 59.6449 13.1707 60.0929 13.516C60.5503 13.8613 61.1103 14.034 61.7729 14.034C62.6969 14.034 63.3689 13.6933 63.7889 13.012L64.8249 13.6C64.1436 14.6547 63.1169 15.182 61.7449 15.182C60.6343 15.182 59.7289 14.8367 59.0289 14.146C58.3383 13.446 57.9929 12.564 57.9929 11.5C57.9929 10.4453 58.3336 9.568 59.0149 8.868C59.6963 8.168 60.5783 7.818 61.6609 7.818C62.6876 7.818 63.5229 8.182 64.1669 8.91C64.8203 9.62867 65.1469 10.4967 65.1469 11.514C65.1469 11.6913 65.1329 11.8733 65.1049 12.06H59.2389ZM61.6609 8.966C61.0076 8.966 60.4663 9.15267 60.0369 9.526C59.6076 9.89 59.3416 10.38 59.2389 10.996H63.9149C63.8123 10.3333 63.5509 9.82933 63.1309 9.484C62.7109 9.13867 62.2209 8.966 61.6609 8.966ZM73.547 8V15H72.357V9.918L70.131 13.502H69.977L67.751 9.918V15H66.547V8H67.849L70.047 11.542L72.245 8H73.547ZM81.3144 14.118C80.5958 14.8273 79.7231 15.182 78.6964 15.182C77.6698 15.182 76.7971 14.8273 76.0784 14.118C75.3691 13.4087 75.0144 12.536 75.0144 11.5C75.0144 10.464 75.3691 9.59133 76.0784 8.882C76.7971 8.17267 77.6698 7.818 78.6964 7.818C79.7231 7.818 80.5958 8.17267 81.3144 8.882C82.0331 9.59133 82.3924 10.464 82.3924 11.5C82.3924 12.536 82.0331 13.4087 81.3144 14.118ZM78.6964 13.992C79.3964 13.992 79.9844 13.754 80.4604 13.278C80.9364 12.802 81.1744 12.2093 81.1744 11.5C81.1744 10.7907 80.9364 10.198 80.4604 9.722C79.9844 9.246 79.3964 9.008 78.6964 9.008C78.0058 9.008 77.4224 9.246 76.9464 9.722C76.4704 10.198 76.2324 10.7907 76.2324 11.5C76.2324 12.2093 76.4704 12.802 76.9464 13.278C77.4224 13.754 78.0058 13.992 78.6964 13.992ZM88.6723 8H89.8903V15H88.6723V12.074H85.0463V15H83.8283V8H85.0463V10.912H88.6723V8ZM96.9523 8V9.176H94.5723V15H93.3543V9.176H90.9603V8H96.9523ZM103.542 8H104.76V15H103.542V13.796C102.936 14.72 102.054 15.182 100.896 15.182C99.9163 15.182 99.0809 14.8273 98.3903 14.118C97.6996 13.3993 97.3543 12.5267 97.3543 11.5C97.3543 10.4733 97.6996 9.60533 98.3903 8.896C99.0809 8.17733 99.9163 7.818 100.896 7.818C102.054 7.818 102.936 8.28 103.542 9.204V8ZM101.05 14.006C101.76 14.006 102.352 13.768 102.828 13.292C103.304 12.8067 103.542 12.2093 103.542 11.5C103.542 10.7907 103.304 10.198 102.828 9.722C102.352 9.23667 101.76 8.994 101.05 8.994C100.35 8.994 99.7623 9.23667 99.2863 9.722C98.8103 10.198 98.5723 10.7907 98.5723 11.5C98.5723 12.2093 98.8103 12.8067 99.2863 13.292C99.7623 13.768 100.35 14.006 101.05 14.006ZM115.216 15H113.788L111.17 11.682V15H109.966V11.682L107.348 15H105.934L108.86 11.388L106.074 8H107.488L109.966 11.094V8H111.17V11.094L113.648 8H115.076L112.276 11.388L115.216 15ZM121.225 8H122.443V15H121.225V12.074H117.599V15H116.381V8H117.599V10.912H121.225V8ZM127.251 10.52C127.951 10.52 128.53 10.73 128.987 11.15C129.454 11.5607 129.687 12.0973 129.687 12.76C129.687 13.4227 129.454 13.964 128.987 14.384C128.53 14.7947 127.951 15 127.251 15H124.297V8H125.515V10.52H127.251ZM130.597 8H131.815V15H130.597V8ZM127.251 13.866C127.596 13.866 127.886 13.768 128.119 13.572C128.362 13.3667 128.483 13.096 128.483 12.76C128.483 12.424 128.362 12.1533 128.119 11.948C127.886 11.7427 127.596 11.64 127.251 11.64H125.515V13.866H127.251ZM134.53 12.06C134.651 12.6853 134.936 13.1707 135.384 13.516C135.841 13.8613 136.401 14.034 137.064 14.034C137.988 14.034 138.66 13.6933 139.08 13.012L140.116 13.6C139.435 14.6547 138.408 15.182 137.036 15.182C135.925 15.182 135.02 14.8367 134.32 14.146C133.629 13.446 133.284 12.564 133.284 11.5C133.284 10.4453 133.625 9.568 134.306 8.868C134.987 8.168 135.869 7.818 136.952 7.818C137.979 7.818 138.814 8.182 139.458 8.91C140.111 9.62867 140.438 10.4967 140.438 11.514C140.438 11.6913 140.424 11.8733 140.396 12.06H134.53ZM136.952 8.966C136.299 8.966 135.757 9.15267 135.328 9.526C134.899 9.89 134.633 10.38 134.53 10.996H139.206C139.103 10.3333 138.842 9.82933 138.422 9.484C138.002 9.13867 137.512 8.966 136.952 8.966ZM149.202 7.818C150.182 7.818 151.017 8.17733 151.708 8.896C152.399 9.60533 152.744 10.4733 152.744 11.5C152.744 12.5267 152.399 13.3993 151.708 14.118C151.017 14.8273 150.182 15.182 149.202 15.182C148.045 15.182 147.163 14.72 146.556 13.796V17.8H145.338V8H146.556V9.204C147.163 8.28 148.045 7.818 149.202 7.818ZM149.048 14.006C149.748 14.006 150.336 13.768 150.812 13.292C151.288 12.8067 151.526 12.2093 151.526 11.5C151.526 10.7907 151.288 10.198 150.812 9.722C150.336 9.23667 149.748 8.994 149.048 8.994C148.339 8.994 147.746 9.23667 147.27 9.722C146.794 10.198 146.556 10.7907 146.556 11.5C146.556 12.2093 146.794 12.8067 147.27 13.292C147.746 13.768 148.339 14.006 149.048 14.006ZM159.993 8H161.211V15H159.993V13.796C159.387 14.72 158.505 15.182 157.347 15.182C156.367 15.182 155.532 14.8273 154.841 14.118C154.151 13.3993 153.805 12.5267 153.805 11.5C153.805 10.4733 154.151 9.60533 154.841 8.896C155.532 8.17733 156.367 7.818 157.347 7.818C158.505 7.818 159.387 8.28 159.993 9.204V8ZM157.501 14.006C158.211 14.006 158.803 13.768 159.279 13.292C159.755 12.8067 159.993 12.2093 159.993 11.5C159.993 10.7907 159.755 10.198 159.279 9.722C158.803 9.23667 158.211 8.994 157.501 8.994C156.801 8.994 156.213 9.23667 155.737 9.722C155.261 10.198 155.023 10.7907 155.023 11.5C155.023 12.2093 155.261 12.8067 155.737 13.292C156.213 13.768 156.801 14.006 157.501 14.006ZM166.235 15.182C165.199 15.182 164.345 14.8413 163.673 14.16C163.001 13.4787 162.665 12.6013 162.665 11.528C162.665 10.3333 162.837 9.414 163.183 8.77C163.537 8.126 164.256 7.54267 165.339 7.02C165.535 6.92667 165.801 6.80533 166.137 6.656C166.482 6.50667 166.734 6.39467 166.893 6.32C167.051 6.236 167.229 6.12867 167.425 5.998C167.621 5.858 167.765 5.70867 167.859 5.55C167.961 5.382 168.036 5.19067 168.083 4.976L169.063 5.536C169.035 5.68533 168.997 5.82533 168.951 5.956C168.904 6.07733 168.834 6.19867 168.741 6.32C168.657 6.432 168.582 6.53 168.517 6.614C168.451 6.698 168.339 6.79133 168.181 6.894C168.031 6.98733 167.919 7.05733 167.845 7.104C167.779 7.15067 167.644 7.22067 167.439 7.314C167.243 7.40733 167.107 7.47267 167.033 7.51C166.967 7.538 166.813 7.60333 166.571 7.706C166.328 7.79933 166.179 7.86 166.123 7.888C165.488 8.15867 165.021 8.434 164.723 8.714C164.433 8.994 164.223 9.34867 164.093 9.778C164.391 9.40467 164.765 9.12933 165.213 8.952C165.661 8.77467 166.109 8.686 166.557 8.686C167.434 8.686 168.176 8.98467 168.783 9.582C169.399 10.1793 169.707 10.9493 169.707 11.892C169.707 12.844 169.38 13.6327 168.727 14.258C168.073 14.874 167.243 15.182 166.235 15.182ZM164.597 13.39C165.035 13.8007 165.581 14.006 166.235 14.006C166.888 14.006 167.425 13.8053 167.845 13.404C168.274 13.0027 168.489 12.4987 168.489 11.892C168.489 11.2667 168.283 10.758 167.873 10.366C167.471 9.96467 166.939 9.764 166.277 9.764C165.679 9.764 165.138 9.95533 164.653 10.338C164.177 10.7113 163.939 11.206 163.939 11.822C163.939 12.4567 164.158 12.9793 164.597 13.39ZM176.908 14.118C176.19 14.8273 175.317 15.182 174.29 15.182C173.264 15.182 172.391 14.8273 171.672 14.118C170.963 13.4087 170.608 12.536 170.608 11.5C170.608 10.464 170.963 9.59133 171.672 8.882C172.391 8.17267 173.264 7.818 174.29 7.818C175.317 7.818 176.19 8.17267 176.908 8.882C177.627 9.59133 177.986 10.464 177.986 11.5C177.986 12.536 177.627 13.4087 176.908 14.118ZM174.29 13.992C174.99 13.992 175.578 13.754 176.054 13.278C176.53 12.802 176.768 12.2093 176.768 11.5C176.768 10.7907 176.53 10.198 176.054 9.722C175.578 9.246 174.99 9.008 174.29 9.008C173.6 9.008 173.016 9.246 172.54 9.722C172.064 10.198 171.826 10.7907 171.826 11.5C171.826 12.2093 172.064 12.802 172.54 13.278C173.016 13.754 173.6 13.992 174.29 13.992ZM184.357 8V9.176H181.977V15H180.759V9.176H178.365V8H184.357ZM188.378 10.52C189.078 10.52 189.657 10.73 190.114 11.15C190.581 11.5607 190.814 12.0973 190.814 12.76C190.814 13.4227 190.581 13.964 190.114 14.384C189.657 14.7947 189.078 15 188.378 15H185.424V8H186.642V10.52H188.378ZM191.724 8H192.942V15H191.724V8ZM188.378 13.866C188.723 13.866 189.013 13.768 189.246 13.572C189.489 13.3667 189.61 13.096 189.61 12.76C189.61 12.424 189.489 12.1533 189.246 11.948C189.013 11.7427 188.723 11.64 188.378 11.64H186.642V13.866H188.378ZM204.365 8V15H203.147V9.162H199.521V15H198.303V8H204.365ZM212.127 14.118C211.408 14.8273 210.536 15.182 209.509 15.182C208.482 15.182 207.61 14.8273 206.891 14.118C206.182 13.4087 205.827 12.536 205.827 11.5C205.827 10.464 206.182 9.59133 206.891 8.882C207.61 8.17267 208.482 7.818 209.509 7.818C210.536 7.818 211.408 8.17267 212.127 8.882C212.846 9.59133 213.205 10.464 213.205 11.5C213.205 12.536 212.846 13.4087 212.127 14.118ZM209.509 13.992C210.209 13.992 210.797 13.754 211.273 13.278C211.749 12.802 211.987 12.2093 211.987 11.5C211.987 10.7907 211.749 10.198 211.273 9.722C210.797 9.246 210.209 9.008 209.509 9.008C208.818 9.008 208.235 9.246 207.759 9.722C207.283 10.198 207.045 10.7907 207.045 11.5C207.045 12.2093 207.283 12.802 207.759 13.278C208.235 13.754 208.818 13.992 209.509 13.992ZM220.387 13.838H221.353V16.876H220.149V15H214.899V16.876H213.695V13.838H214.549C214.997 13.222 215.221 12.3587 215.221 11.248V8H220.387V13.838ZM215.935 13.838H219.183V9.134H216.425V11.248C216.425 12.2933 216.262 13.1567 215.935 13.838ZM232.088 15H230.576L227.384 11.682V15H226.166V8H227.384V11.094L230.408 8H231.976L228.63 11.388L232.088 15ZM239.059 8V15H237.841V9.176H235.083V12.032C235.083 13.18 234.85 13.9827 234.383 14.44C233.926 14.888 233.277 15.0747 232.437 15V13.852C232.913 13.9173 233.268 13.8147 233.501 13.544C233.744 13.264 233.865 12.7507 233.865 12.004V8H239.059ZM247.022 7.818C248.049 7.818 248.917 8.17267 249.626 8.882C250.345 9.59133 250.704 10.464 250.704 11.5C250.704 12.536 250.345 13.4087 249.626 14.118C248.917 14.8273 248.049 15.182 247.022 15.182C246.098 15.182 245.3 14.888 244.628 14.3C243.956 13.712 243.555 12.97 243.424 12.074H242.122V15H240.904V8H242.122V10.912H243.424C243.555 10.016 243.956 9.27867 244.628 8.7C245.31 8.112 246.108 7.818 247.022 7.818ZM247.022 13.992C247.713 13.992 248.296 13.754 248.772 13.278C249.248 12.802 249.486 12.2093 249.486 11.5C249.486 10.7907 249.248 10.198 248.772 9.722C248.296 9.246 247.713 9.008 247.022 9.008C246.322 9.008 245.734 9.246 245.258 9.722C244.782 10.198 244.544 10.7907 244.544 11.5C244.544 12.2093 244.782 12.802 245.258 13.278C245.734 13.754 246.322 13.992 247.022 13.992ZM256.416 8H257.634V15H256.416V12.48C255.856 12.7227 255.226 12.844 254.526 12.844C253.63 12.844 252.935 12.634 252.44 12.214C251.955 11.7847 251.712 11.1547 251.712 10.324V8H252.93V10.254C252.93 10.7767 253.07 11.15 253.35 11.374C253.639 11.598 254.059 11.71 254.61 11.71C255.273 11.71 255.875 11.5887 256.416 11.346V8ZM53.586 31.402C54.3047 31.7007 54.664 32.242 54.664 33.026C54.664 33.6047 54.468 34.0807 54.076 34.454C53.6933 34.818 53.1427 35 52.424 35H48.924V28H52.144C52.844 28 53.3853 28.1773 53.768 28.532C54.1507 28.8773 54.342 29.3347 54.342 29.904C54.342 30.576 54.09 31.0753 53.586 31.402ZM52.088 29.092H50.114V30.926H52.088C52.7973 30.926 53.152 30.6133 53.152 29.988C53.152 29.3907 52.7973 29.092 52.088 29.092ZM52.354 33.894C52.7087 33.894 52.9793 33.81 53.166 33.642C53.362 33.474 53.46 33.236 53.46 32.928C53.46 32.6387 53.362 32.4147 53.166 32.256C52.9793 32.088 52.7087 32.004 52.354 32.004H50.114V33.894H52.354ZM68.7747 25.2V35H67.4867V27.342L64.2807 32.676H64.1127L60.9067 27.356V35H59.6047V25.2H61.0747L64.1967 30.38L67.3047 25.2H68.7747ZM76.6523 34.118C75.9336 34.8273 75.061 35.182 74.0343 35.182C73.0076 35.182 72.135 34.8273 71.4163 34.118C70.707 33.4087 70.3523 32.536 70.3523 31.5C70.3523 30.464 70.707 29.5913 71.4163 28.882C72.135 28.1727 73.0076 27.818 74.0343 27.818C75.061 27.818 75.9336 28.1727 76.6523 28.882C77.371 29.5913 77.7303 30.464 77.7303 31.5C77.7303 32.536 77.371 33.4087 76.6523 34.118ZM74.0343 33.992C74.7343 33.992 75.3223 33.754 75.7983 33.278C76.2743 32.802 76.5123 32.2093 76.5123 31.5C76.5123 30.7907 76.2743 30.198 75.7983 29.722C75.3223 29.246 74.7343 29.008 74.0343 29.008C73.3436 29.008 72.7603 29.246 72.2843 29.722C71.8083 30.198 71.5703 30.7907 71.5703 31.5C71.5703 32.2093 71.8083 32.802 72.2843 33.278C72.7603 33.754 73.3436 33.992 74.0343 33.992ZM82.4562 35.182C81.4015 35.182 80.5242 34.832 79.8242 34.132C79.1242 33.4227 78.7742 32.5453 78.7742 31.5C78.7742 30.4547 79.1242 29.582 79.8242 28.882C80.5242 28.1727 81.4015 27.818 82.4562 27.818C83.1469 27.818 83.7675 27.986 84.3182 28.322C84.8689 28.6487 85.2795 29.092 85.5502 29.652L84.5282 30.24C84.3509 29.8667 84.0755 29.568 83.7022 29.344C83.3382 29.12 82.9229 29.008 82.4562 29.008C81.7562 29.008 81.1682 29.246 80.6922 29.722C80.2255 30.198 79.9922 30.7907 79.9922 31.5C79.9922 32.2 80.2255 32.788 80.6922 33.264C81.1682 33.74 81.7562 33.978 82.4562 33.978C82.9229 33.978 83.3429 33.8707 83.7162 33.656C84.0895 33.432 84.3742 33.1333 84.5702 32.76L85.6062 33.362C85.3075 33.9127 84.8782 34.356 84.3182 34.692C83.7582 35.0187 83.1375 35.182 82.4562 35.182ZM92.7444 35H91.2324L88.0404 31.682V35H86.8224V28H88.0404V31.094L91.0644 28H92.6324L89.2864 31.388L92.7444 35ZM98.5391 31.402C99.2578 31.7007 99.6171 32.242 99.6171 33.026C99.6171 33.6047 99.4211 34.0807 99.0291 34.454C98.6465 34.818 98.0958 35 97.3771 35H93.8771V28H97.0971C97.7971 28 98.3385 28.1773 98.7211 28.532C99.1038 28.8773 99.2951 29.3347 99.2951 29.904C99.2951 30.576 99.0431 31.0753 98.5391 31.402ZM97.0411 29.092H95.0671V30.926H97.0411C97.7505 30.926 98.1051 30.6133 98.1051 29.988C98.1051 29.3907 97.7505 29.092 97.0411 29.092ZM97.3071 33.894C97.6618 33.894 97.9325 33.81 98.1191 33.642C98.3151 33.474 98.4131 33.236 98.4131 32.928C98.4131 32.6387 98.3151 32.4147 98.1191 32.256C97.9325 32.088 97.6618 32.004 97.3071 32.004H95.0671V33.894H97.3071ZM101.786 32.06C101.907 32.6853 102.192 33.1707 102.64 33.516C103.097 33.8613 103.657 34.034 104.32 34.034C105.244 34.034 105.916 33.6933 106.336 33.012L107.372 33.6C106.69 34.6547 105.664 35.182 104.292 35.182C103.181 35.182 102.276 34.8367 101.576 34.146C100.885 33.446 100.54 32.564 100.54 31.5C100.54 30.4453 100.88 29.568 101.562 28.868C102.243 28.168 103.125 27.818 104.208 27.818C105.234 27.818 106.07 28.182 106.714 28.91C107.367 29.6287 107.694 30.4967 107.694 31.514C107.694 31.6913 107.68 31.8733 107.652 32.06H101.786ZM104.208 28.966C103.554 28.966 103.013 29.1527 102.584 29.526C102.154 29.89 101.888 30.38 101.786 30.996H106.462C106.359 30.3333 106.098 29.8293 105.678 29.484C105.258 29.1387 104.768 28.966 104.208 28.966ZM117.676 28H118.656V35H117.452V30.086L113.574 35H112.594V28H113.798V32.914L117.676 28ZM129.918 34.118C129.199 34.8273 128.327 35.182 127.3 35.182C126.273 35.182 125.401 34.8273 124.682 34.118C123.973 33.4087 123.618 32.536 123.618 31.5C123.618 30.464 123.973 29.5913 124.682 28.882C125.401 28.1727 126.273 27.818 127.3 27.818C128.327 27.818 129.199 28.1727 129.918 28.882C130.637 29.5913 130.996 30.464 130.996 31.5C130.996 32.536 130.637 33.4087 129.918 34.118ZM127.3 33.992C128 33.992 128.588 33.754 129.064 33.278C129.54 32.802 129.778 32.2093 129.778 31.5C129.778 30.7907 129.54 30.198 129.064 29.722C128.588 29.246 128 29.008 127.3 29.008C126.609 29.008 126.026 29.246 125.55 29.722C125.074 30.198 124.836 30.7907 124.836 31.5C124.836 32.2093 125.074 32.802 125.55 33.278C126.026 33.754 126.609 33.992 127.3 33.992ZM135.61 35.182C134.574 35.182 133.72 34.8413 133.048 34.16C132.376 33.4787 132.04 32.6013 132.04 31.528C132.04 30.3333 132.212 29.414 132.558 28.77C132.912 28.126 133.631 27.5427 134.714 27.02C134.91 26.9267 135.176 26.8053 135.512 26.656C135.857 26.5067 136.109 26.3947 136.268 26.32C136.426 26.236 136.604 26.1287 136.8 25.998C136.996 25.858 137.14 25.7087 137.234 25.55C137.336 25.382 137.411 25.1907 137.458 24.976L138.438 25.536C138.41 25.6853 138.372 25.8253 138.326 25.956C138.279 26.0773 138.209 26.1987 138.116 26.32C138.032 26.432 137.957 26.53 137.892 26.614C137.826 26.698 137.714 26.7913 137.556 26.894C137.406 26.9873 137.294 27.0573 137.22 27.104C137.154 27.1507 137.019 27.2207 136.814 27.314C136.618 27.4073 136.482 27.4727 136.408 27.51C136.342 27.538 136.188 27.6033 135.946 27.706C135.703 27.7993 135.554 27.86 135.498 27.888C134.863 28.1587 134.396 28.434 134.098 28.714C133.808 28.994 133.598 29.3487 133.468 29.778C133.766 29.4047 134.14 29.1293 134.588 28.952C135.036 28.7747 135.484 28.686 135.932 28.686C136.809 28.686 137.551 28.9847 138.158 29.582C138.774 30.1793 139.082 30.9493 139.082 31.892C139.082 32.844 138.755 33.6327 138.102 34.258C137.448 34.874 136.618 35.182 135.61 35.182ZM133.972 33.39C134.41 33.8007 134.956 34.006 135.61 34.006C136.263 34.006 136.8 33.8053 137.22 33.404C137.649 33.0027 137.864 32.4987 137.864 31.892C137.864 31.2667 137.658 30.758 137.248 30.366C136.846 29.9647 136.314 29.764 135.652 29.764C135.054 29.764 134.513 29.9553 134.028 30.338C133.552 30.7113 133.314 31.206 133.314 31.822C133.314 32.4567 133.533 32.9793 133.972 33.39ZM145.967 28V35H144.749V29.176H141.991V32.032C141.991 33.18 141.758 33.9827 141.291 34.44C140.834 34.888 140.185 35.0747 139.345 35V33.852C139.821 33.9173 140.176 33.8147 140.409 33.544C140.652 33.264 140.773 32.7507 140.773 32.004V28H145.967ZM153.609 28H154.827V35H153.609V33.796C153.002 34.72 152.12 35.182 150.963 35.182C149.983 35.182 149.147 34.8273 148.457 34.118C147.766 33.3993 147.421 32.5267 147.421 31.5C147.421 30.4733 147.766 29.6053 148.457 28.896C149.147 28.1773 149.983 27.818 150.963 27.818C152.12 27.818 153.002 28.28 153.609 29.204V28ZM151.117 34.006C151.826 34.006 152.419 33.768 152.895 33.292C153.371 32.8067 153.609 32.2093 153.609 31.5C153.609 30.7907 153.371 30.198 152.895 29.722C152.419 29.2367 151.826 28.994 151.117 28.994C150.417 28.994 149.829 29.2367 149.353 29.722C148.877 30.198 148.639 30.7907 148.639 31.5C148.639 32.2093 148.877 32.8067 149.353 33.292C149.829 33.768 150.417 34.006 151.117 34.006ZM159.962 35.182C158.907 35.182 158.03 34.832 157.33 34.132C156.63 33.4227 156.28 32.5453 156.28 31.5C156.28 30.4547 156.63 29.582 157.33 28.882C158.03 28.1727 158.907 27.818 159.962 27.818C160.653 27.818 161.273 27.986 161.824 28.322C162.375 28.6487 162.785 29.092 163.056 29.652L162.034 30.24C161.857 29.8667 161.581 29.568 161.208 29.344C160.844 29.12 160.429 29.008 159.962 29.008C159.262 29.008 158.674 29.246 158.198 29.722C157.731 30.198 157.498 30.7907 157.498 31.5C157.498 32.2 157.731 32.788 158.198 33.264C158.674 33.74 159.262 33.978 159.962 33.978C160.429 33.978 160.849 33.8707 161.222 33.656C161.595 33.432 161.88 33.1333 162.076 32.76L163.112 33.362C162.813 33.9127 162.384 34.356 161.824 34.692C161.264 35.0187 160.643 35.182 159.962 35.182ZM169.413 28V29.176H167.033V35H165.815V29.176H163.421V28H169.413ZM175.563 28H176.543V35H175.339V30.086L171.461 35H170.481V28H171.685V32.914L175.563 28Z" fill="#222222"/>
<path fill-rule="evenodd" clip-rule="evenodd" d="M28.1215 2.96751H35.0108V2.9668C36.1476 2.9668 37.0776 3.90329 37.0776 5.04798V37.3068C37.0776 37.6884 36.7676 38.0005 36.3887 38.0005H26.7436C26.3647 38.0005 26.0547 37.6884 26.0547 37.3068V31.757C26.5369 31.757 26.9847 31.6876 27.4326 31.5835V36.6131H35.6997V5.04882C35.6997 4.66727 35.3897 4.35509 35.0108 4.35509H28.1215C27.7426 4.35509 27.4326 4.66727 27.4326 5.04882V10.4252L27.9492 12.7839C28.087 13.3041 28.087 13.8591 27.9837 14.4141L27.4326 17.1543V20.831C26.9847 20.727 26.5369 20.6576 26.0547 20.6576V17.0502V16.9115L26.6058 14.1366C26.6747 13.7897 26.6747 13.4082 26.6058 13.0613L26.0547 10.6333V10.4945V5.0487C26.0547 3.90401 26.9847 2.96751 28.1215 2.96751ZM29.3946 7.34642H30.0627C30.4301 7.34642 30.7307 6.96745 30.7307 6.50427C30.7307 6.04108 30.4301 5.66211 30.0627 5.66211H29.3946C29.0272 5.66211 28.7266 6.04108 28.7266 6.50427C28.7266 6.96745 29.0272 7.34642 29.3946 7.34642ZM0.000624878 37.3097C0.000624878 37.6891 0.308058 37.9995 0.683809 37.9995H24.6975C24.6292 37.7926 24.595 37.5512 24.595 37.3097V36.62H18.3781C18.8563 36.0337 19.0954 35.3094 19.1296 34.5507C19.1296 32.6538 17.4899 31.1018 15.4746 31.1018H15.0305V29.3774H18.2074C18.7197 29.3774 19.1296 28.9635 19.1296 28.4462V22.0658C19.0955 21.514 18.788 20.9967 18.3098 20.7208L18.1048 20.6174L21.5208 13.8231C21.572 13.8231 21.6147 13.8317 21.6574 13.8403C21.7001 13.849 21.7428 13.8576 21.794 13.8576L24.1852 22.5487C22.1698 23.5489 21.3158 26.0321 22.3065 28.1014C22.9896 29.5154 24.4243 30.412 25.9614 30.412H26.0639C28.3184 30.3431 30.1288 28.4462 30.0606 26.17C30.0264 25.0664 29.5824 24.0317 28.7967 23.273C28.011 22.5487 26.9521 22.1348 25.8931 22.1348C25.7565 22.1348 25.6198 22.1348 25.4832 22.1693L23.092 13.5129C24.2193 12.8231 24.595 11.3402 23.9119 10.202C23.2287 9.06386 21.7599 8.68452 20.6326 9.37429C19.9152 9.82264 19.4712 10.5813 19.4712 11.4436C19.4712 11.6505 19.5053 11.8575 19.5395 12.0299L13.9032 18.3758L12.0586 17.4101C11.9561 17.3411 11.8195 17.3066 11.6828 17.3066C11.3071 17.2721 10.9996 17.5136 10.9313 17.8929V19.3759H4.98763C4.13361 19.3759 3.41631 20.0312 3.41631 20.8934V23.5145H0.922649C0.410262 23.5145 0.000390772 23.9284 0.000390772 24.4457V28.4463C0.000390772 28.9636 0.410301 29.3775 0.88853 29.3775H10.9309V31.1019H3.65499C1.63964 31.1019 0 32.6539 0 34.5507C0 35.3095 0.273273 36.0337 0.751502 36.62H0.683184C0.307433 36.62 0 36.9304 0 37.3098L0.000624878 37.3097ZM12.2979 35.2404C11.9222 35.2404 11.6147 34.93 11.6147 34.5507C11.6147 34.1713 11.9222 33.8609 12.2979 33.8609C12.6737 33.8609 12.9811 34.1713 12.9811 34.5507C12.9811 34.93 12.6737 35.2404 12.2979 35.2404ZM13.6643 31.1018H12.2979V29.3774H13.6643V31.1018ZM15.7138 34.5507C15.7138 34.93 15.4064 35.2404 15.0307 35.2404C14.6549 35.2404 14.3475 34.93 14.3475 34.5507C14.3475 34.1713 14.6549 33.8609 15.0307 33.8609C15.4064 33.8609 15.7138 34.1713 15.7138 34.5507ZM20.2571 13.3058L16.9436 19.9621L15.1673 19.0309L20.2571 13.3058ZM1.36684 27.9982V24.8943H12.2978V19.0657L17.6608 21.8938C17.695 21.9282 17.7291 21.9972 17.7633 22.0662V27.9982L1.36684 27.9982ZM9.56504 33.8613C9.94079 33.8613 10.2482 34.1717 10.2482 34.5511C10.2482 34.9304 9.94079 35.2408 9.56504 35.2408C9.18929 35.2408 8.88186 34.9304 8.88186 34.5511C8.88186 34.1717 9.18929 33.8613 9.56504 33.8613ZM6.83231 33.8613C7.20806 33.8613 7.51549 34.1717 7.51549 34.5511C7.51549 34.9304 7.20806 35.2408 6.83231 35.2408C6.45655 35.2408 6.14912 34.9304 6.14912 34.5511C6.14912 34.1717 6.45655 33.8613 6.83231 33.8613ZM4.09957 33.8613C4.47532 33.8613 4.78275 34.1717 4.78275 34.5511C4.78275 34.9304 4.47532 35.2408 4.09957 35.2408C3.72382 35.2408 3.41639 34.9304 3.41639 34.5511C3.41639 34.1717 3.72382 33.8613 4.09957 33.8613ZM33.4025 7.34642H32.7345C32.367 7.34642 32.0664 6.96745 32.0664 6.50427C32.0664 6.04108 32.367 5.66211 32.7345 5.66211H33.4025C33.7699 5.66211 34.0706 6.04108 34.0706 6.50427C34.0706 6.96745 33.7699 7.34642 33.4025 7.34642ZM29.3946 10.0408H30.0627C30.4301 10.0408 30.7307 9.73763 30.7307 9.36708C30.7307 8.99654 30.4301 8.69336 30.0627 8.69336H29.3946C29.0272 8.69336 28.7266 8.99654 28.7266 9.36708C28.7266 9.73763 29.0272 10.0408 29.3946 10.0408ZM33.4025 10.0408H32.7345C32.367 10.0408 32.0664 9.73763 32.0664 9.36708C32.0664 8.99654 32.367 8.69336 32.7345 8.69336H33.4025C33.7699 8.69336 34.0706 8.99654 34.0706 9.36708C34.0706 9.73763 33.7699 10.0408 33.4025 10.0408ZM29.3946 12.7361H30.0627C30.4301 12.7361 30.7307 12.4329 30.7307 12.0624C30.7307 11.6918 30.4301 11.3887 30.0627 11.3887H29.3946C29.0272 11.3887 28.7266 11.6918 28.7266 12.0624C28.7266 12.4329 29.0272 12.7361 29.3946 12.7361ZM33.4025 12.7361H32.7345C32.367 12.7361 32.0664 12.4329 32.0664 12.0624C32.0664 11.6918 32.367 11.3887 32.7345 11.3887H33.4025C33.7699 11.3887 34.0706 11.6918 34.0706 12.0624C34.0706 12.4329 33.7699 12.7361 33.4025 12.7361ZM29.3946 15.4295H30.0627C30.4301 15.4295 30.7307 15.1263 30.7307 14.7558C30.7307 14.3852 30.4301 14.082 30.0627 14.082H29.3946C29.0272 14.082 28.7266 14.3852 28.7266 14.7558C28.7266 15.1263 29.0272 15.4295 29.3946 15.4295ZM33.4025 15.4295H32.7345C32.367 15.4295 32.0664 15.1263 32.0664 14.7558C32.0664 14.3852 32.367 14.082 32.7345 14.082H33.4025C33.7699 14.082 34.0706 14.3852 34.0706 14.7558C34.0706 15.1263 33.7699 15.4295 33.4025 15.4295ZM29.3946 18.1248H30.0627C30.4301 18.1248 30.7307 17.8216 30.7307 17.4511C30.7307 17.0805 30.4301 16.7773 30.0627 16.7773H29.3946C29.0272 16.7773 28.7266 17.0805 28.7266 17.4511C28.7266 17.8216 29.0272 18.1248 29.3946 18.1248ZM33.4025 18.1248H32.7345C32.367 18.1248 32.0664 17.8216 32.0664 17.4511C32.0664 17.0805 32.367 16.7773 32.7345 16.7773H33.4025C33.7699 16.7773 34.0706 17.0805 34.0706 17.4511C34.0706 17.8216 33.7699 18.1248 33.4025 18.1248ZM29.3946 21.1589H30.0627C30.4301 21.1589 30.7307 20.78 30.7307 20.3168C30.7307 19.8536 30.4301 19.4746 30.0627 19.4746H29.3946C29.0272 19.4746 28.7266 19.8536 28.7266 20.3168C28.7266 20.78 29.0272 21.1589 29.3946 21.1589ZM33.4025 21.1589H32.7345C32.367 21.1589 32.0664 20.78 32.0664 20.3168C32.0664 19.8536 32.367 19.4746 32.7345 19.4746H33.4025C33.7699 19.4746 34.0706 19.8536 34.0706 20.3168C34.0706 20.78 33.7699 21.1589 33.4025 21.1589ZM32.7345 23.8514H33.4025C33.7699 23.8514 34.0706 23.5482 34.0706 23.1776C34.0706 22.8071 33.7699 22.5039 33.4025 22.5039H32.7345C32.367 22.5039 32.0664 22.8071 32.0664 23.1776C32.0664 23.5482 32.367 23.8514 32.7345 23.8514ZM33.4025 26.5467H32.7345C32.367 26.5467 32.0664 26.2435 32.0664 25.8729C32.0664 25.5024 32.367 25.1992 32.7345 25.1992H33.4025C33.7699 25.1992 34.0706 25.5024 34.0706 25.8729C34.0706 26.2435 33.7699 26.5467 33.4025 26.5467ZM32.7345 29.242H33.4025C33.7699 29.242 34.0706 28.9388 34.0706 28.5683C34.0706 28.1977 33.7699 27.8945 33.4025 27.8945H32.7345C32.367 27.8945 32.0664 28.1977 32.0664 28.5683C32.0664 28.9388 32.367 29.242 32.7345 29.242ZM29.3946 31.9373C29.0272 31.9373 28.7266 31.6341 28.7266 31.2636C28.7266 30.893 29.0272 30.5898 29.3946 30.5898H30.0627C30.4301 30.5898 30.7307 30.893 30.7307 31.2636C30.7307 31.6341 30.4301 31.9373 30.0627 31.9373H29.3946ZM32.7345 31.9373H33.4025C33.7699 31.9373 34.0706 31.6341 34.0706 31.2636C34.0706 30.893 33.7699 30.5898 33.4025 30.5898H32.7345C32.367 30.5898 32.0664 30.893 32.0664 31.2636C32.0664 31.6341 32.367 31.9373 32.7345 31.9373ZM30.0627 34.6326H29.3946C29.0272 34.6326 28.7266 34.3294 28.7266 33.9589C28.7266 33.5883 29.0272 33.2852 29.3946 33.2852H30.0627C30.4301 33.2852 30.7307 33.5883 30.7307 33.9589C30.7307 34.3294 30.4301 34.6326 30.0627 34.6326ZM32.7345 34.6326H33.4025C33.7699 34.6326 34.0706 34.3294 34.0706 33.9589C34.0706 33.5883 33.7699 33.2852 33.4025 33.2852H32.7345C32.367 33.2852 32.0664 33.5883 32.0664 33.9589C32.0664 34.3294 32.367 34.6326 32.7345 34.6326ZM14.3633 23.5155C14.3633 23.145 14.6639 22.8418 15.0313 22.8418C15.3988 22.8418 15.6994 23.145 15.6994 23.5155V24.1892C15.6994 24.5598 15.3988 24.863 15.0313 24.863C14.6639 24.863 14.3633 24.5598 14.3633 24.1892V23.5155ZM20.9134 29.7802L19.9114 30.7908C19.6441 31.0603 19.6441 31.4646 19.9114 31.734C20.1786 32.0035 20.5794 32.0035 20.8466 31.734L21.8487 30.7235C22.1159 30.454 22.1159 30.0497 21.8487 29.7802C21.5815 29.5108 21.1807 29.5108 20.9134 29.7802ZM22.4544 32.6424L23.119 31.3C23.2852 30.9644 23.684 30.8302 24.0163 30.998C24.3487 31.1658 24.4816 31.5685 24.3154 31.9041L23.6508 33.2464C23.4846 33.582 23.0858 33.7162 22.7535 33.5485C22.4211 33.3807 22.2882 32.978 22.4544 32.6424ZM30.7306 23.2008C30.7306 22.8175 30.48 22.5039 30.1738 22.5039H30.0625C30.2852 22.8175 30.5079 23.166 30.6749 23.5145C30.7027 23.41 30.7306 23.3054 30.7306 23.2009V23.2008Z" fill="#222222"/>
</svg>
