<svg width="32" height="45" viewBox="0 0 32 45" fill="none" xmlns="http://www.w3.org/2000/svg">
<path d="M31.9999 34.5197H2.72551e-05V14.2587H31.9999V34.5197ZM10.6666 24.0393C11.1381 24.0393 11.5905 23.8553 11.9238 23.5278C12.2571 23.2003 12.4444 22.7558 12.4444 22.2926C12.4444 21.8294 12.2571 21.3849 11.9238 21.0574C11.5905 20.7299 11.1381 20.5459 10.6666 20.5459C10.1952 20.5459 9.74284 20.7299 9.40951 21.0574C9.07618 21.3849 8.88888 21.8294 8.88888 22.2926C8.88888 22.7558 9.07618 23.2003 9.40951 23.5278C9.74284 23.8553 10.1952 24.0393 10.6666 24.0393ZM13.8325 30.3705L20.9436 21.6369C21.3245 21.1483 21.4158 20.4988 21.1841 19.9272C20.9519 19.3556 20.4309 18.9462 19.8122 18.8491C19.1936 18.7524 18.569 18.9824 18.1674 19.455L11.0564 28.1886C10.7504 28.5492 10.6048 29.0156 10.6528 29.4827C10.7004 29.9501 10.9377 30.3786 11.3111 30.6718C11.6841 30.965 12.1619 31.0984 12.6361 31.0418C13.1107 30.9849 13.5417 30.7432 13.8325 30.3705ZM23.111 27.5328C23.111 27.0696 22.9237 26.6251 22.5904 26.2976C22.2571 25.9701 21.8047 25.7861 21.3333 25.7861C20.8618 25.7861 20.4095 25.9701 20.0761 26.2976C19.7428 26.6251 19.5555 27.0696 19.5555 27.5328C19.5555 27.996 19.7428 28.4405 20.0761 28.768C20.4095 29.0955 20.8618 29.2795 21.3333 29.2795C21.8047 29.2795 22.2571 29.0955 22.5904 28.768C22.9237 28.4405 23.111 27.996 23.111 27.5328ZM2.72551e-05 11.8123V10.4773C-0.00314733 9.50373 0.271062 8.54852 0.792091 7.72037C1.31312 6.89185 2.05989 6.22358 2.94807 5.79079L13.6147 0.550629C15.1175 -0.183543 16.8838 -0.183543 18.3865 0.550629L29.0532 5.79079C29.9408 6.22357 30.6873 6.89183 31.2079 7.72037C31.7289 8.54851 32.0031 9.50372 32 10.4773V11.8123H2.72551e-05ZM14.2222 6.57213C14.2222 7.03532 14.4095 7.4798 14.7428 7.80731C15.0761 8.13481 15.5285 8.31885 16 8.31885C16.4714 8.31885 16.9238 8.13481 17.2571 7.80731C17.5904 7.4798 17.7777 7.03532 17.7777 6.57213C17.7777 6.10894 17.5904 5.66445 17.2571 5.33695C16.9238 5.00944 16.4714 4.82541 16 4.82541C15.5285 4.82541 15.0761 5.00944 14.7428 5.33695C14.4095 5.66445 14.2222 6.10894 14.2222 6.57213ZM2.72551e-05 36.9661V39.7598C0.00161455 41.149 0.563916 42.4813 1.56396 43.4634C2.56355 44.4459 3.91955 44.9984 5.33334 45H26.6666C28.0805 44.9984 29.4365 44.446 30.436 43.4634C31.436 42.4813 31.9983 41.1489 31.9999 39.7598V36.9661H2.72551e-05Z" fill="#DA8E49"/>
</svg>
