<svg width="58" height="45" viewBox="0 0 58 45" fill="none" xmlns="http://www.w3.org/2000/svg">
<path d="M14.6868 9.76603L24.8139 2.05195C27.587 -0.0540222 31.2498 -0.579271 34.5023 0.663652L50.6477 6.82889C51.6995 7.22501 52.8145 7.42616 53.9382 7.42203H56.5947C56.9719 7.42037 57.3338 7.57146 57.5985 7.84049C57.8632 8.10995 58.0079 8.4746 57.9997 8.85209V28.6117C57.9997 29.3853 57.3735 30.012 56.6005 30.012H53.0904C52.5871 30.0132 52.0994 30.1871 51.709 30.5045L50.9087 31.1573C50.7031 31.3208 50.4049 31.2889 50.2387 31.0861L31.4251 8.20591C31.196 7.9257 30.875 7.7353 30.5197 7.66824C30.1641 7.60078 29.7964 7.66079 29.4804 7.83795L20.8595 12.6741C19.1266 13.6431 17.0409 13.7461 15.2207 12.9527C14.6214 12.6944 14.1945 12.1493 14.0866 11.5053C13.9786 10.8612 14.2049 10.2064 14.6871 9.76643L14.6868 9.76603ZM1.40542 30.0004H4.44117L6.5579 27.4072C7.40204 26.3836 8.59194 25.7052 9.90261 25.5007C11.2129 25.2958 12.5529 25.5794 13.6683 26.2971C14.7837 27.0148 15.5977 28.1171 15.9558 29.3947C17.7772 29.8972 19.2046 31.3144 19.7207 33.1332C21.0512 33.5206 22.1824 34.4038 22.881 35.6017C24.0303 35.7814 25.0917 36.324 25.9109 37.1506C26.7551 38.0367 27.2874 39.1742 27.4275 40.3906C27.5678 41.6071 27.308 42.836 26.6876 43.8911L26.4031 44.3956C26.3911 44.4089 26.3911 44.4296 26.4031 44.4432C27.081 44.9163 27.9201 45.0984 28.7333 44.949C29.546 44.7996 30.2656 44.3306 30.7313 43.6473C31.1966 42.9635 31.3699 42.122 31.2115 41.3099C31.1962 41.2793 31.2078 41.2416 31.2375 41.2246C31.2673 41.2072 31.3054 41.2159 31.3244 41.2445L31.5556 41.4701C32.0771 41.992 32.7628 42.3173 33.4966 42.3906C34.2303 42.4643 34.9669 42.2817 35.5814 41.8736C36.074 41.5297 36.4562 41.05 36.6812 40.4924C36.9066 39.9353 36.9653 39.3247 36.8503 38.7345C36.835 38.7039 36.8462 38.6662 36.876 38.6493C36.9058 38.6319 36.9438 38.6406 36.9628 38.6695L37.194 38.8951V38.8947C37.7152 39.415 38.4001 39.7395 39.1326 39.8132C39.865 39.8864 40.6004 39.7047 41.2141 39.2983C41.7133 38.9564 42.1013 38.4763 42.3308 37.9162C42.5608 37.3566 42.6216 36.7415 42.5066 36.1476C42.4913 36.1166 42.5029 36.0793 42.5327 36.062C42.5625 36.045 42.6005 36.0537 42.6195 36.0822L42.8805 36.3314C43.3743 36.8223 44.0158 37.1365 44.7061 37.2255C45.3963 37.3145 46.0966 37.1733 46.6987 36.824C47.4957 36.3471 48.0379 35.5388 48.1769 34.6199C48.3158 33.701 48.0367 32.768 47.4163 32.0768L45.5187 29.7862L30.1854 11.1127C30.0294 10.9219 29.759 10.8718 29.5451 10.9939L22.2167 15.1003C19.8592 16.4227 17.0402 16.6396 14.5087 15.6939C13.1149 15.2047 12.0135 14.1156 11.5085 12.727C11.1061 11.3011 11.2897 9.77375 12.0184 8.48399C12.1359 8.26627 12.1293 8.00219 12.0015 7.78986C11.8737 7.57794 11.6433 7.44922 11.3956 7.4517H1.40496C1.03273 7.45004 0.67539 7.59698 0.411932 7.85981C0.148061 8.12265 0 8.47944 0 8.85196V28.6116C0.00620375 29.3827 0.634446 30.0036 1.40501 30.0002L1.40542 30.0004ZM12.114 28.5823V28.5819C11.5499 28.266 10.8914 28.1622 10.2574 28.2896C9.62337 28.4167 9.0559 28.7669 8.65726 29.2764L6.59962 31.8041H6.60003C6.15749 32.3467 5.95152 33.045 6.02845 33.7412C6.10538 34.4374 6.45859 35.0735 7.00907 35.5069L7.3234 35.7503V35.7499C7.73203 36.0719 8.22793 36.2635 8.74694 36.3008C9.26599 36.3376 9.78381 36.218 10.2346 35.9577C10.2777 35.9283 10.3343 35.9291 10.3769 35.9597C10.4191 35.9904 10.4381 36.0438 10.4241 36.0942C10.331 36.5673 10.3699 37.0574 10.5374 37.5098C10.7049 37.9622 10.994 38.3591 11.3728 38.6576L11.6276 38.8591H11.628C12.0218 39.1696 12.497 39.3604 12.9962 39.4088C13.4954 39.4572 13.9979 39.3612 14.4442 39.1323C14.4889 39.1104 14.5414 39.1145 14.5823 39.1427C14.6229 39.1712 14.6448 39.2192 14.6398 39.2689C14.5356 40.1782 14.9103 41.0768 15.6299 41.6422L15.8078 41.7788C16.2069 42.0913 16.6871 42.2829 17.1916 42.3301C17.6962 42.3773 18.2037 42.2788 18.654 42.0458C18.6975 42.0189 18.752 42.0164 18.798 42.0391C18.8439 42.0623 18.8745 42.1074 18.879 42.1584C18.9857 42.8136 19.3352 43.4047 19.8576 43.814L19.9701 43.903C20.5801 44.3811 21.368 44.5698 22.1282 44.4204C22.8884 44.2714 23.5464 43.7987 23.931 43.1256L24.3165 42.4493C24.6353 41.9137 24.7631 41.2859 24.6792 40.6682C24.5952 40.0506 24.304 39.4799 23.8536 39.049C23.4698 38.7009 22.9926 38.4724 22.4805 38.3926C21.9685 38.3123 21.444 38.3839 20.9722 38.5983C20.9469 38.6115 20.9163 38.6099 20.8927 38.5937C20.8688 38.5776 20.8564 38.5494 20.8597 38.5209C20.9056 37.6334 20.5007 36.7829 19.7827 36.2597C19.0651 35.7365 18.1316 35.6119 17.3019 35.9277C16.9107 35.9989 16.9938 35.6549 16.9938 35.6549C17.2713 34.9803 17.256 34.2208 16.9512 33.5581C16.646 32.8954 16.0789 32.3896 15.3862 32.1628C14.6934 31.9355 13.9374 32.008 13.2997 32.3615C13.0093 32.4028 13.0449 32.1301 13.0449 32.1301C13.3886 31.5353 13.4837 30.8288 13.3096 30.164C13.1351 29.4996 12.7053 28.9309 12.1139 28.5815L12.114 28.5823Z" fill="#DA8E49"/>
</svg>
