<svg width="34" height="45" viewBox="0 0 34 45" fill="none" xmlns="http://www.w3.org/2000/svg">
<path d="M13.7266 32.9427L11.3668 33.7001C11.1259 33.7473 10.9334 33.7948 10.6926 33.7948C9.8739 33.7948 9.15131 33.3689 8.76638 32.6588L7.65881 30.4815L6.74371 30.3867L2.07231 40.1841C1.68699 40.9414 2.36121 41.7459 3.17987 41.604L6.5509 40.9887C6.98425 40.8939 7.41759 41.0834 7.65847 41.5093L9.29578 44.4912C9.68109 45.201 10.7886 45.1538 11.1259 44.444L15.7973 34.694C15.7493 34.6468 15.7009 34.6468 15.6529 34.5992L13.7266 32.9427Z" fill="#DA8E49"/>
<path d="M27.3036 30.3867L26.3405 30.4815L25.2329 32.6588C24.8476 33.3686 24.1253 33.7948 23.3067 33.7948C23.0659 33.7948 22.8734 33.7476 22.6325 33.7001L20.2726 32.9427L18.3944 34.5046C18.3464 34.5518 18.298 34.5994 18.25 34.5994L22.9214 44.3494C23.2587 45.1067 24.3178 45.154 24.7515 44.3966L26.4373 41.4147C26.6781 41.036 27.1115 40.8468 27.5448 40.8941L30.9159 41.5095C31.7345 41.6514 32.4087 40.8468 32.0234 40.0895L27.3036 30.3867Z" fill="#DA8E49"/>
<path d="M16.9999 7.05267C11.6062 7.05267 7.17554 11.3598 7.17554 16.708C7.17554 22.0564 11.6061 26.3634 16.9999 26.3634C22.3937 26.3634 26.8243 22.0087 26.8243 16.708C26.8243 11.4073 22.3937 7.05267 16.9999 7.05267ZM22.6345 15.146L20.3711 17.5125C20.2746 17.6072 20.2746 17.7016 20.2746 17.7964L20.66 21.0147C20.708 21.2986 20.4191 21.4881 20.1302 21.3934L17.1444 20.021C17.048 19.9737 16.9519 19.9737 16.8555 20.021L13.8698 21.3934C13.6289 21.5353 13.34 21.2986 13.34 21.0147L13.7253 17.7964C13.7253 17.7016 13.7253 17.6072 13.6289 17.5125L11.3654 15.146C11.1729 14.9568 11.269 14.5781 11.5579 14.5306L14.7846 13.9152C14.881 13.9152 14.9771 13.8204 15.0254 13.726L16.6147 10.886C16.7591 10.6493 17.0964 10.6493 17.2408 10.886L18.8301 13.726C18.8781 13.8207 18.9745 13.868 19.0709 13.9152L22.2976 14.5306C22.6826 14.5781 22.8273 14.9092 22.6345 15.146H22.6345Z" fill="#DA8E49"/>
<path d="M33.8556 17.0392C34.0481 16.8501 34.0481 16.5658 33.8556 16.3766L31.833 14.0574C31.6885 13.9154 31.6885 13.7259 31.7366 13.5367L32.6996 10.6496C32.7961 10.4129 32.6516 10.1289 32.4588 10.0342L29.7136 8.6618C29.5691 8.56704 29.4247 8.42508 29.4247 8.2359L29.1838 5.20677C29.1838 4.97006 28.9429 4.73334 28.7021 4.73334L25.5722 4.49662C25.3797 4.49662 25.2349 4.35465 25.1388 4.21269L23.7424 1.5147C23.646 1.27798 23.3571 1.18323 23.1162 1.27798L20.1785 2.2245C19.986 2.27171 19.7932 2.2245 19.6488 2.12975L17.2889 0.141883C17.0964 -0.0472942 16.8072 -0.0472942 16.6147 0.141883L14.3032 2.13C14.1587 2.27197 13.9659 2.27197 13.7734 2.22476L10.8357 1.27824C10.5948 1.18348 10.3059 1.32545 10.2095 1.51496L8.81311 4.2126C8.71669 4.35457 8.57224 4.49653 8.37976 4.49653L5.29759 4.73325C5.05673 4.73325 4.81587 4.96997 4.81587 5.20669L4.575 8.23582C4.575 8.42499 4.43055 8.56729 4.2861 8.66171L1.54088 10.0341C1.30002 10.1289 1.2036 10.4128 1.30002 10.6495L2.2631 13.5366C2.31114 13.7258 2.26311 13.9153 2.16669 14.0573L0.144367 16.3766C-0.0481223 16.5657 -0.0481223 16.85 0.144367 17.0392L2.16704 19.3584C2.31149 19.5004 2.31149 19.6899 2.26345 19.8791L1.30036 22.7662C1.20395 23.0029 1.3484 23.2869 1.54122 23.3816L4.28645 24.754C4.4309 24.8488 4.57535 24.9907 4.57535 25.1799L4.81621 28.209C4.81621 28.4458 5.05707 28.6825 5.29794 28.6825L8.3801 28.9192C8.57259 28.9192 8.71737 29.0612 8.81345 29.2031L10.2099 31.9011C10.3063 32.1378 10.5952 32.2326 10.8361 32.1378L13.7737 31.1913C13.9662 31.1441 14.1591 31.1913 14.3035 31.2861L16.6634 33.2739C16.8559 33.4631 17.1451 33.4631 17.3376 33.2739L19.6974 31.2861C19.8419 31.1441 20.0347 31.1441 20.2272 31.1913L23.1649 32.1378C23.4058 32.2326 23.6947 32.0906 23.7911 31.9011L25.1875 29.2031C25.2839 29.0612 25.4284 28.9192 25.6208 28.9192L28.703 28.6825C28.9439 28.6825 29.1847 28.4458 29.1847 28.209L29.4256 25.1799C29.4256 24.9907 29.5701 24.8484 29.7145 24.754L32.4597 23.3816C32.7006 23.2868 32.797 23.0029 32.7006 22.7662L31.7375 19.8791C31.6895 19.6899 31.7375 19.5004 31.8339 19.3584L33.8556 17.0392ZM17.0001 27.9725C10.6913 27.9725 5.53826 22.908 5.53826 16.7079C5.53826 10.5078 10.6914 5.44336 17.0001 5.44336C23.3087 5.44336 28.4618 10.5079 28.4618 16.7079C28.4618 22.9081 23.3087 27.9725 17.0001 27.9725Z" fill="#DA8E49"/>
</svg>
