<svg width="49" height="45" viewBox="0 0 49 45" fill="none" xmlns="http://www.w3.org/2000/svg">
<path fill-rule="evenodd" clip-rule="evenodd" d="M22.8626 39.7419C33.1002 39.7419 40.4006 32.5735 40.4006 22.4973C40.4006 12.4218 33.1008 5.25272 22.8626 5.25272C12.6243 5.25272 5.32455 12.4211 5.32455 22.4973C5.32455 32.5729 12.6243 39.7419 22.8626 39.7419ZM22.8626 2.06002C17.128 2.06002 11.935 4.34777 8.17744 8.04564C4.4187 11.7435 2.09556 16.8539 2.09556 22.4983C2.09556 28.1421 4.4201 33.253 8.17744 36.951C11.9348 40.6491 17.1274 42.9367 22.8626 42.9367C28.5989 42.9367 33.7902 40.6489 37.5477 36.951C41.3079 33.2503 43.6343 28.1396 43.6343 22.5002L43.6296 20.3422L49 24.6273L47.6823 26.221L45.6233 24.5777C45.1222 29.9634 42.6972 34.7986 39.0279 38.4102C34.8923 42.4804 29.1764 45 22.8637 45C16.5496 45 10.8338 42.4804 6.69577 38.4102C2.56015 34.34 0 28.7128 0 22.5C0 16.2872 2.55865 10.6614 6.69577 6.58979C10.8314 2.51963 16.5491 0 22.8618 0L22.8626 2.06002ZM23.9104 10.4618V21.4685H29.3089V23.5292H21.8166V10.4622L23.9104 10.4618Z" fill="#DA8E49"/>
</svg>
