<svg width="50" height="46" viewBox="0 0 50 46" fill="none" xmlns="http://www.w3.org/2000/svg">
<path fill-rule="evenodd" clip-rule="evenodd" d="M23.3292 40.6251C33.7757 40.6251 41.2251 33.2974 41.2251 22.9973C41.2251 12.6978 33.7764 5.36945 23.3292 5.36945C12.8819 5.36945 5.43321 12.6971 5.43321 22.9973C5.43321 33.2967 12.8819 40.6251 23.3292 40.6251ZM23.3292 2.1058C17.4776 2.1058 12.1785 4.44439 8.34433 8.22444C4.50888 12.0045 2.13832 17.2284 2.13832 22.9983C2.13832 28.7675 4.51031 33.9919 8.34433 37.7722C12.1784 41.5524 17.4769 43.8908 23.3292 43.8908C29.1826 43.8908 34.4798 41.5522 38.314 37.7722C42.1509 33.9892 44.5248 28.7649 44.5248 23.0002L44.52 20.7942L50 25.1746L48.6554 26.8037L46.5544 25.1239C46.0431 30.6292 43.5686 35.5719 39.8244 39.2638C35.6044 43.4244 29.7719 46 23.3303 46C16.8873 46 11.0549 43.4244 6.83242 39.2638C2.6124 35.1032 0 29.3509 0 23C0 16.6491 2.61087 10.8984 6.83242 6.73623C11.0524 2.57562 16.8869 0 23.3284 0L23.3292 2.1058ZM24.3983 10.6942V21.9456H29.907V24.0521H22.2618V10.6947L24.3983 10.6942Z" fill="#DA8E49"/>
</svg>
