<svg width="38" height="51" viewBox="0 0 38 51" fill="none" xmlns="http://www.w3.org/2000/svg">
<path d="M15.3413 36.6037L12.7038 37.4452C12.4346 37.4976 12.2195 37.5505 11.9503 37.5505C11.0353 37.5505 10.2277 37.0772 9.79749 36.2882L8.55962 33.869L7.53686 33.7637L2.31588 44.6496C1.88523 45.4911 2.63877 46.385 3.55375 46.2274L7.32137 45.5436C7.8057 45.4383 8.29002 45.6489 8.55924 46.1221L10.3892 49.4353C10.8198 50.224 12.0576 50.1715 12.4346 49.3828L17.6556 38.5495C17.6019 38.497 17.5478 38.497 17.4941 38.4442L15.3413 36.6037Z" fill="#DA8E49"/>
<path d="M30.5171 33.7637L29.4407 33.869L28.2029 36.2882C27.7722 37.0769 26.965 37.5505 26.0501 37.5505C25.7809 37.5505 25.5657 37.498 25.2965 37.4452L22.659 36.6037L20.5599 38.3391C20.5062 38.3916 20.4521 38.4444 20.3984 38.4444L25.6194 49.2777C25.9964 50.1193 27.1801 50.1717 27.6648 49.3302L29.5489 46.017C29.8181 45.5962 30.3024 45.386 30.7868 45.4385L34.5544 46.1223C35.4694 46.28 36.2229 45.386 35.7923 44.5445L30.5171 33.7637Z" fill="#DA8E49"/>
<path d="M18.9997 7.83594C12.9715 7.83594 8.01953 12.6216 8.01953 18.5641C8.01953 24.5068 12.9714 29.2923 18.9997 29.2923C25.0281 29.2923 29.9799 24.4538 29.9799 18.5641C29.9799 12.6744 25.0281 7.83594 18.9997 7.83594ZM25.2972 16.8285L22.7675 19.4579C22.6597 19.5632 22.6597 19.6681 22.6597 19.7734L23.0903 23.3493C23.144 23.6648 22.8211 23.8753 22.4983 23.77L19.1612 22.2451C19.0535 22.1927 18.9461 22.1927 18.8383 22.2451L15.5013 23.77C15.2321 23.9278 14.9092 23.6648 14.9092 23.3493L15.3399 19.7734C15.3399 19.6681 15.3399 19.5632 15.2321 19.4579L12.7024 16.8285C12.4872 16.6183 12.5946 16.1975 12.9175 16.1447L16.5237 15.4609C16.6315 15.4609 16.7389 15.3557 16.7929 15.2507L18.5692 12.0952C18.7306 11.8322 19.1076 11.8322 19.269 12.0952L21.0452 15.2507C21.0989 15.356 21.2066 15.4085 21.3144 15.4609L24.9206 16.1447C25.3509 16.1975 25.5127 16.5655 25.2972 16.8285H25.2972Z" fill="#DA8E49"/>
<path d="M37.8386 18.9325C38.0538 18.7223 38.0538 18.4065 37.8386 18.1963L35.578 15.6193C35.4166 15.4616 35.4166 15.251 35.4703 15.0408L36.5467 11.8329C36.6544 11.5699 36.493 11.2544 36.2775 11.1491L33.2093 9.62422C33.0478 9.51894 32.8864 9.3612 32.8864 9.151L32.6172 5.7853C32.6172 5.52228 32.348 5.25926 32.0788 5.25926L28.5807 4.99624C28.3655 4.99624 28.2037 4.8385 28.0963 4.68077L26.5356 1.683C26.4279 1.41998 26.105 1.3147 25.8358 1.41998L22.5525 2.47167C22.3373 2.52413 22.1218 2.47167 21.9604 2.36639L19.3229 0.157647C19.1078 -0.0525491 18.7845 -0.0525491 18.5694 0.157647L15.9859 2.36667C15.8244 2.52441 15.6089 2.52441 15.3938 2.47195L12.1105 1.42026C11.8413 1.31498 11.5184 1.47272 11.4107 1.68328L9.84994 4.68067C9.74219 4.83841 9.58074 4.99615 9.36561 4.99615L5.92084 5.25917C5.65164 5.25917 5.38244 5.52219 5.38244 5.78521L5.11324 9.15091C5.11324 9.3611 4.95179 9.51921 4.79035 9.62412L1.72216 11.149C1.45296 11.2543 1.3452 11.5698 1.45296 11.8328L2.52935 15.0407C2.58304 15.2509 2.52935 15.4615 2.4216 15.6192L0.161351 18.1962C-0.0537837 18.4064 -0.0537837 18.7222 0.161351 18.9324L2.42198 21.5094C2.58343 21.6671 2.58343 21.8777 2.52974 22.0879L1.45334 25.2958C1.34559 25.5588 1.50703 25.8743 1.72254 25.9796L4.79073 27.5045C4.95218 27.6097 5.11362 27.7675 5.11362 27.9777L5.38282 31.3434C5.38282 31.6064 5.65202 31.8694 5.92122 31.8694L9.36599 32.1324C9.58113 32.1324 9.74295 32.2902 9.85033 32.4479L11.411 35.4457C11.5188 35.7087 11.8417 35.814 12.1109 35.7087L15.3942 34.657C15.6093 34.6045 15.8248 34.657 15.9863 34.7623L18.6238 36.971C18.8389 37.1812 19.1622 37.1812 19.3773 36.971L22.0148 34.7623C22.1762 34.6045 22.3917 34.6045 22.6069 34.657L25.8902 35.7087C26.1594 35.814 26.4823 35.6562 26.59 35.4457L28.1507 32.4479C28.2585 32.2902 28.4199 32.1324 28.6351 32.1324L32.0798 31.8694C32.349 31.8694 32.6182 31.6064 32.6182 31.3434L32.8874 27.9777C32.8874 27.7675 33.0489 27.6094 33.2103 27.5045L36.2785 25.9796C36.5477 25.8743 36.6555 25.5588 36.5477 25.2958L35.4713 22.0879C35.4176 21.8777 35.4713 21.6671 35.5791 21.5094L37.8386 18.9325ZM19.0001 31.0806C11.9491 31.0806 6.18982 25.4534 6.18982 18.5644C6.18982 11.6753 11.9492 6.04818 19.0001 6.04818C26.0509 6.04818 31.8103 11.6754 31.8103 18.5644C31.8103 25.4534 26.0509 31.0806 19.0001 31.0806Z" fill="#DA8E49"/>
</svg>
