<svg width="50" height="40" viewBox="0 0 50 40" fill="none" xmlns="http://www.w3.org/2000/svg">
<path d="M12.6611 8.68091L21.3913 1.82396C23.7819 -0.0480197 26.9395 -0.514907 29.7433 0.589913L43.6618 6.07013C44.5685 6.42223 45.5297 6.60103 46.4984 6.59736H48.7885C49.1137 6.59589 49.4257 6.73018 49.6539 6.96933C49.882 7.20885 50.0068 7.53298 49.9997 7.86853V25.4326C49.9997 26.1203 49.4599 26.6773 48.7935 26.6773H45.7676C45.3337 26.6784 44.9133 26.8329 44.5767 27.1151L43.8868 27.6954C43.7096 27.8407 43.4525 27.8124 43.3092 27.6321L27.0906 7.29414C26.8931 7.04506 26.6164 6.87582 26.3101 6.81622C26.0035 6.75625 25.6865 6.80959 25.4141 6.96707L17.9824 11.2659C16.4885 12.1272 14.6904 12.2188 13.1213 11.5135C12.6046 11.2839 12.2367 10.7994 12.1436 10.2269C12.0505 9.65442 12.2456 9.07234 12.6613 8.68127L12.6611 8.68091ZM1.21157 26.667H3.8286L5.65336 24.3619C6.38107 23.4521 7.40684 22.8491 8.53673 22.6673C9.66626 22.4852 10.8214 22.7372 11.783 23.3752C12.7446 24.0131 13.4463 24.9929 13.755 26.1287C15.3252 26.5753 16.5557 27.8351 17.0006 29.4517C18.1476 29.7961 19.1228 30.5812 19.725 31.646C20.7158 31.8057 21.6307 32.288 22.337 33.0227C23.0647 33.8104 23.5236 34.8215 23.6444 35.9028C23.7653 36.9841 23.5414 38.0765 23.0066 39.0143L22.7613 39.4628C22.7509 39.4745 22.7509 39.4929 22.7613 39.5051C23.3456 39.9256 24.0691 40.0875 24.7701 39.9547C25.4707 39.8219 26.0911 39.405 26.4925 38.7976C26.8936 38.1898 27.043 37.4417 26.9064 36.7199C26.8933 36.6927 26.9032 36.6592 26.9289 36.6441C26.9546 36.6287 26.9874 36.6364 27.0038 36.6618L27.2031 36.8623C27.6527 37.3262 28.2438 37.6154 28.8763 37.6805C29.5088 37.746 30.1439 37.5838 30.6736 37.221C31.0983 36.9153 31.4277 36.4888 31.6217 35.9933C31.816 35.4981 31.8666 34.9553 31.7675 34.4307C31.7543 34.4035 31.764 34.37 31.7896 34.3549C31.8153 34.3395 31.8481 34.3472 31.8645 34.3729L32.0638 34.5734V34.5731C32.5131 35.0356 33.1035 35.324 33.735 35.3895C34.3664 35.4546 35.0003 35.2931 35.5294 34.9318C35.9598 34.6279 36.2942 34.2011 36.4921 33.7033C36.6903 33.2059 36.7428 32.6592 36.6436 32.1312C36.6304 32.1036 36.6404 32.0705 36.6661 32.0551C36.6918 32.04 36.7246 32.0477 36.741 32.0731L36.966 32.2946C37.3917 32.7309 37.9447 33.0102 38.5397 33.0893C39.1348 33.1684 39.7384 33.0429 40.2575 32.7324C40.9446 32.3086 41.4119 31.59 41.5318 30.7732C41.6516 29.9564 41.4109 29.1271 40.8761 28.5127L39.2403 26.4767L26.0219 9.87798C25.8875 9.70836 25.6543 9.66385 25.4699 9.77238L19.1524 13.4225C17.12 14.598 14.6898 14.7908 12.5075 13.9501C11.3059 13.5152 10.3565 12.5472 9.92111 11.3129C9.57419 10.0454 9.73249 8.68777 10.3607 7.54132C10.462 7.3478 10.4563 7.11306 10.3461 6.92432C10.2359 6.73594 10.0373 6.62153 9.82376 6.62373H1.21117C0.890285 6.62226 0.582233 6.75287 0.355114 6.9865C0.127639 7.22013 0 7.53728 0 7.86841V25.4325C0.00534806 26.1179 0.546936 26.6699 1.21122 26.6668L1.21157 26.667ZM10.4431 25.4065V25.4061C9.95678 25.1254 9.38915 25.033 8.84259 25.1463C8.29601 25.2593 7.80681 25.5706 7.46316 26.0235L5.68932 28.2703H5.68968C5.30818 28.7527 5.13062 29.3733 5.19694 29.9922C5.26326 30.611 5.56775 31.1765 6.0423 31.5617L6.31328 31.778V31.7777C6.66554 32.0639 7.09304 32.2343 7.54047 32.2674C7.98792 32.3001 8.43432 32.1938 8.82297 31.9624C8.86005 31.9362 8.9089 31.937 8.94562 31.9642C8.98199 31.9914 8.99839 32.0389 8.98627 32.0838C8.90605 32.5043 8.93956 32.9399 9.08396 33.342C9.22836 33.7442 9.47758 34.097 9.80417 34.3623L10.0238 34.5414H10.0242C10.3636 34.8174 10.7732 34.987 11.2036 35.03C11.634 35.0731 12.0671 34.9877 12.4519 34.7843C12.4904 34.7648 12.5357 34.7684 12.571 34.7935C12.6059 34.8189 12.6248 34.8615 12.6205 34.9057C12.5307 35.714 12.8537 36.5127 13.4741 37.0153L13.6274 37.1367C13.9715 37.4145 14.3854 37.5848 14.8204 37.6268C15.2553 37.6687 15.6928 37.5812 16.0811 37.374C16.1185 37.3501 16.1656 37.3479 16.2051 37.3681C16.2447 37.3887 16.2711 37.4288 16.275 37.4741C16.367 38.0565 16.6683 38.5819 17.1186 38.9458L17.2156 39.0249C17.7415 39.4498 18.4207 39.6176 19.076 39.4848C19.7314 39.3523 20.2987 38.9322 20.6302 38.3339L20.9625 37.7327C21.2373 37.2566 21.3475 36.6985 21.2751 36.1495C21.2028 35.6005 20.9518 35.0932 20.5635 34.7102C20.2326 34.4008 19.8212 34.1977 19.3797 34.1267C18.9383 34.0553 18.4862 34.119 18.0794 34.3096C18.0577 34.3213 18.0313 34.3199 18.011 34.3055C17.9903 34.2912 17.9796 34.2662 17.9825 34.2408C18.022 33.4519 17.673 32.6959 17.054 32.2308C16.4354 31.7658 15.6307 31.655 14.9155 31.9357C14.5782 31.999 14.6498 31.6933 14.6498 31.6933C14.8891 31.0936 14.8759 30.4184 14.6131 29.8294C14.35 29.2404 13.8612 28.7908 13.264 28.5891C12.6668 28.3871 12.015 28.4515 11.4652 28.7657C11.2149 28.8025 11.2456 28.5601 11.2456 28.5601C11.5419 28.0314 11.6239 27.4034 11.4738 26.8124C11.3233 26.2219 10.9529 25.7164 10.443 25.4058L10.4431 25.4065Z" fill="#DA8E49"/>
</svg>
