<svg width="26" height="26" viewBox="0 0 26 26" fill="none" xmlns="http://www.w3.org/2000/svg">
<path d="M13 8.63444e-05C9.55212 8.63444e-05 6.24527 1.36948 3.80769 3.80776C1.3694 6.24569 0 9.55243 0 13C0 16.4476 1.3694 19.7547 3.80769 22.1923C6.24562 24.6306 9.55238 26 13 26C16.4476 26 19.7547 24.6306 22.1923 22.1923C24.6306 19.7544 26 16.4476 26 13C25.9959 9.55348 24.6251 6.24908 22.1879 3.81211C19.7506 1.37488 16.4462 0.00409165 12.9999 0L13 8.63444e-05ZM13 23.5636V23.5633C10.1985 23.5633 7.51169 22.4506 5.5308 20.4697C3.54991 18.4889 2.43724 15.802 2.43724 13.0006C2.43724 10.1991 3.54991 7.51228 5.5308 5.5314C7.51169 3.55052 10.1985 2.43785 13 2.43785C15.8015 2.43785 18.4883 3.55052 20.4692 5.5314C22.4501 7.51228 23.5628 10.1991 23.5628 13.0006C23.5597 15.801 22.4457 18.4858 20.4655 20.466C18.4853 22.4462 15.8004 23.5603 13 23.5633V23.5636Z" fill="#DA8E49"/>
<path d="M13.0004 4.0625C10.6299 4.0625 8.35648 5.0041 6.68029 6.68029C5.00411 8.35647 4.0625 10.6298 4.0625 13.0004C4.0625 15.371 5.00411 17.6443 6.68029 19.3205C8.35648 20.9967 10.6298 21.9383 13.0004 21.9383C15.3711 21.9383 17.6444 20.9967 19.3206 19.3205C20.9968 17.6443 21.9384 15.371 21.9384 13.0004C21.9353 10.6308 20.993 8.35926 19.3175 6.68342C17.6417 5.00793 15.37 4.06563 13.0005 4.06259L13.0004 4.0625ZM17.0387 14.0096V14.0099C16.9486 14.3717 16.6235 14.6254 16.2505 14.6258C16.1841 14.6254 16.1178 14.6173 16.0532 14.6013L12.8032 13.7889H12.8029C12.4414 13.6981 12.188 13.3733 12.188 13.0006V7.31303C12.188 6.86415 12.5516 6.50028 13.0005 6.50028C13.4493 6.50028 13.8129 6.86415 13.8129 7.31303V12.366L16.447 13.0251H16.4474C16.8823 13.1336 17.1472 13.5746 17.0387 14.0099L17.0387 14.0096Z" fill="#DA8E49"/>
</svg>
