<svg width="26" height="26" viewBox="0 0 26 26" fill="none" xmlns="http://www.w3.org/2000/svg">
<path d="M17.4283 15.9355H9.44155C6.09213 16.2439 3.46875 19.081 3.46875 22.5367C3.46875 25.8372 5.86248 25.9997 8.99718 25.9997C9.33894 25.9997 9.68989 25.9977 10.0478 25.9977H16.8239C17.18 25.9977 17.5314 25.9997 17.8731 25.9997C21.0077 25.9997 23.4021 25.8377 23.4021 22.5367C23.4021 19.0805 20.7776 16.243 17.4288 15.9355H17.4283Z" fill="#DA8E49"/>
<path d="M7.75 9.21425C7.75 12.3768 10.2947 14.941 13.433 14.941C16.5718 14.941 19.1166 12.3767 19.1166 9.21425C19.1166 9.16549 19.114 9.11692 19.1128 9.06836H7.75388C7.75268 9.11692 7.75008 9.16509 7.75008 9.21425H7.75Z" fill="#DA8E49"/>
<path d="M7.37042 8.07082H19.4972C19.97 8.07082 20.3529 7.68492 20.3529 7.20874C20.3529 6.73256 19.97 6.34707 19.4972 6.34707H19.2645C19.2645 4.05705 17.9632 2.0746 16.0668 1.10527L15.5833 3.86582C15.5455 4.08446 15.3563 4.23842 15.1432 4.23842C15.1176 4.23842 15.0916 4.2362 15.0654 4.23157C14.8222 4.18804 14.66 3.95449 14.7036 3.70924L15.2546 0.556165C15.048 0.222456 14.681 0 14.2613 0H12.6065C12.1873 0 11.8204 0.222471 11.6134 0.556165L12.1649 3.70966C12.2079 3.9547 12.0458 4.18805 11.8026 4.23198C11.7766 4.23661 11.7504 4.23883 11.7248 4.23883C11.5114 4.23883 11.3226 4.08507 11.2845 3.86623L10.8013 1.10609C8.90452 2.07475 7.60389 4.05705 7.60389 6.34738H7.37072C6.89817 6.34738 6.51562 6.73308 6.51562 7.20905C6.51562 7.68523 6.89838 8.07113 7.37072 8.07113L7.37042 8.07082Z" fill="#DA8E49"/>
</svg>
