<svg width="26" height="26" viewBox="0 0 26 26" fill="none" xmlns="http://www.w3.org/2000/svg">
<path d="M3.32376 9.95732C4.82381 10.496 6.70267 10.8441 8.73405 10.969C10.3509 7.77478 13.726 5.57097 17.6209 5.57097C18.6568 5.57044 19.6864 5.72874 20.6717 6.04037C20.3671 5.27028 19.5221 4.38877 17.496 3.66328C15.5897 2.9765 13.0749 2.59961 10.4101 2.59961C7.74522 2.59961 5.23052 2.97651 3.32418 3.66083C0.576918 4.64794 0 5.91767 0 6.80905C0 7.70044 0.576918 8.97017 3.32418 9.95727L3.32376 9.95732Z" fill="#DA8E49"/>
<path d="M3.32432 16.148C4.61777 16.6124 6.1929 16.9354 7.90531 17.0949V17.0947C7.59156 15.5393 7.67481 13.9325 8.14743 12.4157C6.15537 12.2567 4.30748 11.8941 2.79749 11.3515C1.63572 10.9339 0.69935 10.4243 0 9.82617V12.9995C0 13.891 0.576918 15.1606 3.32417 16.1477L3.32432 16.148Z" fill="#DA8E49"/>
<path d="M8.35032 18.6206C6.28101 18.472 4.35841 18.102 2.79749 17.5409C1.63572 17.1234 0.69935 16.6138 0 16.0156V19.189C0 20.0804 0.576919 21.3501 3.32418 22.3372C5.23048 23.0215 7.74522 23.3984 10.4101 23.3984C11.0336 23.3984 11.6491 23.3775 12.2509 23.337C10.4679 22.2109 9.10116 20.5583 8.35032 18.6204V18.6206Z" fill="#DA8E49"/>
<path d="M17.6211 7.05664C13 7.05664 9.24219 10.7213 9.24219 15.2279C9.24219 19.7345 13 23.3993 17.6211 23.3993C22.2422 23.3993 26 19.7345 26 15.2279C26 10.7213 22.2422 7.05664 17.6211 7.05664ZM17.0016 14.4849H18.2406C19.0978 14.4947 19.8883 14.9379 20.3283 15.6553C20.7683 16.3728 20.7946 17.2617 20.3978 18.0028C20.0009 18.7439 19.238 19.2306 18.3829 19.2887V19.6848C18.3829 19.9503 18.2376 20.1954 18.002 20.3281C17.7664 20.4609 17.4759 20.4609 17.2403 20.3281C17.0047 20.1954 16.8594 19.9503 16.8594 19.6848V19.2947H15.2974C15.0253 19.2947 14.7738 19.153 14.6378 18.9232C14.5017 18.6933 14.5017 18.4102 14.6378 18.1804C14.7738 17.9505 15.0253 17.809 15.2974 17.809H18.2427C18.5795 17.809 18.8905 17.6337 19.059 17.3493C19.2273 17.0649 19.2273 16.7145 19.059 16.4301C18.8905 16.1459 18.5795 15.9707 18.2427 15.9707H17.0017C16.1445 15.9609 15.354 15.5177 14.914 14.8003C14.474 14.0828 14.4477 13.1939 14.8445 12.4528C15.2414 11.7117 16.0043 11.225 16.8594 11.167V10.7708C16.8594 10.5053 17.0047 10.2602 17.2403 10.1275C17.4759 9.99468 17.7664 9.99468 18.002 10.1275C18.2376 10.2602 18.3829 10.5053 18.3829 10.7708V11.1609H19.9449C20.217 11.1609 20.4685 11.3026 20.6045 11.5324C20.7406 11.7623 20.7406 12.0454 20.6045 12.2752C20.4685 12.5051 20.217 12.6466 19.9449 12.6466H16.9996C16.6628 12.6466 16.3518 12.8219 16.1833 13.1063C16.015 13.3907 16.015 13.7411 16.1833 14.0255C16.3518 14.3097 16.6628 14.4849 16.9996 14.4849H17.0016Z" fill="#DA8E49"/>
<ellipse cx="18.199" cy="15.5993" rx="6.93333" ry="6.93333" fill="#DA8E49"/>
<path d="M18.9704 16.8736H17.2544V17.6776H20.0744V18.6136H17.2544V19.9336H15.8744V18.6136H14.9144V17.6776H15.8744V16.8736H14.9144V15.6376H15.8744V11.5336H18.9704C19.7304 11.5336 20.3744 11.7976 20.9024 12.3256C21.4304 12.8456 21.6944 13.4816 21.6944 14.2336C21.6944 14.9776 21.4304 15.6056 20.9024 16.1176C20.3744 16.6216 19.7304 16.8736 18.9704 16.8736ZM17.2544 12.8296V15.6376H18.9704C19.3464 15.6376 19.6624 15.5016 19.9184 15.2296C20.1824 14.9576 20.3144 14.6256 20.3144 14.2336C20.3144 13.8416 20.1824 13.5096 19.9184 13.2376C19.6624 12.9656 19.3464 12.8296 18.9704 12.8296H17.2544Z" fill="#F8F8F8"/>
</svg>
